<?xml version="1.0" standalone="no"?>
<!DOCTYPE svg PUBLIC "-//W3C//DTD SVG 20010904//EN"
 "http://www.w3.org/TR/2001/REC-SVG-20010904/DTD/svg10.dtd">
<svg version="1.0" xmlns="http://www.w3.org/2000/svg"
 width="640.000000pt" height="607.000000pt" viewBox="0 0 640.000000 607.000000"
 preserveAspectRatio="xMidYMid meet">

<g transform="translate(0.000000,607.000000) scale(0.100000,-0.100000)"
fill="#000000" stroke="none">
<path d="M3900 6036 c-195 -85 -291 -147 -389 -252 -152 -162 -185 -356 -105
-631 32 -114 146 -396 159 -395 5 1 35 113 67 249 57 246 130 491 168 568 l20
40 -5 -81 c-7 -110 -52 -287 -141 -557 -42 -126 -73 -231 -70 -235 29 -28 325
219 424 353 175 237 193 518 52 838 -48 111 -65 137 -88 136 -9 0 -51 -15 -92
-33z"/>
<path d="M1546 5823 c-7 -16 -30 -75 -49 -133 -139 -406 -58 -674 261 -864
110 -66 453 -208 467 -194 3 3 -68 118 -158 254 -162 245 -230 360 -282 479
-26 58 -26 59 -5 40 82 -74 219 -282 375 -569 59 -109 111 -194 115 -189 17
17 41 220 41 347 0 195 -31 325 -106 450 -104 173 -274 297 -514 376 -114 37
-127 37 -145 3z"/>
<path d="M2737 5212 c-155 -181 -162 -326 -24 -492 51 -61 165 -165 173 -157
3 2 -11 83 -30 179 -20 96 -36 192 -35 213 l0 40 14 -38 c8 -21 23 -97 35
-170 32 -207 34 -218 45 -220 6 -1 31 39 56 89 114 228 86 395 -96 562 -37 34
-71 62 -74 62 -3 0 -32 -31 -64 -68z"/>
<path d="M4223 4890 c-125 -26 -228 -112 -260 -218 -19 -61 -26 -313 -9 -329
10 -10 15 -3 113 147 81 124 142 204 150 196 9 -9 -78 -146 -161 -253 -47 -59
-82 -111 -78 -115 11 -11 118 20 189 53 81 39 175 126 207 192 36 74 52 177
40 263 l-9 69 -70 2 c-38 0 -89 -3 -112 -7z"/>
<path d="M5200 4500 c-142 -30 -295 -154 -412 -335 -80 -122 -202 -351 -194
-364 3 -5 142 60 308 143 273 137 489 228 505 213 9 -10 -158 -113 -278 -172
-63 -30 -205 -92 -317 -138 -111 -45 -203 -86 -203 -92 -3 -27 260 -84 421
-92 361 -17 614 144 790 501 77 157 79 149 -70 223 -163 81 -275 114 -405 118
-55 2 -120 0 -145 -5z"/>
<path d="M1450 4421 l-45 -6 -3 -61 c-3 -71 18 -176 48 -235 31 -59 94 -115
158 -140 46 -18 85 -23 200 -27 94 -3 147 -1 154 6 7 7 -32 39 -133 105 -79
52 -162 111 -184 131 l-40 37 62 -31 c34 -18 117 -74 185 -125 68 -52 126 -90
130 -87 4 4 0 34 -8 67 -69 267 -261 401 -524 366z"/>
<path d="M6256 4100 c3 -25 14 -97 24 -160 31 -183 40 -308 40 -529 0 -235
-11 -367 -46 -561 -117 -645 -423 -1230 -884 -1690 -450 -451 -1024 -755
-1648 -874 l-69 -13 67 176 c278 727 421 1261 497 1856 26 201 26 754 0 940
-24 174 -60 356 -71 358 -15 3 -22 -19 -74 -233 -87 -359 -152 -503 -450 -993
-123 -203 -127 -208 -142 -185 -44 67 -176 211 -267 291 -276 243 -624 453
-1181 716 -117 56 -218 101 -223 101 -20 0 -3 -20 118 -129 428 -389 796 -819
1053 -1232 87 -138 236 -438 285 -572 80 -219 115 -400 115 -597 0 -198 -35
-357 -108 -494 l-27 -49 -210 6 c-552 16 -1069 166 -1545 448 l-104 62 109 27
c134 34 190 57 272 116 109 78 184 202 220 359 14 66 17 125 17 328 0 147 -5
252 -10 257 -7 7 -54 -59 -138 -190 -70 -110 -161 -247 -201 -304 -73 -102
-184 -231 -192 -222 -7 6 74 162 124 241 61 94 125 182 261 354 62 79 109 148
105 152 -11 11 -164 -30 -282 -74 -147 -55 -235 -111 -342 -217 -79 -79 -103
-109 -137 -180 -51 -104 -69 -173 -83 -310 -5 -58 -11 -109 -12 -114 -4 -12
-179 146 -286 260 -252 266 -431 538 -607 919 -75 162 -75 163 -70 140 62
-306 289 -748 557 -1086 107 -135 375 -403 509 -509 476 -374 1035 -607 1625
-675 173 -20 558 -20 729 0 978 114 1847 671 2362 1511 239 390 396 843 449
1303 20 166 20 555 0 721 -21 182 -81 481 -103 515 -4 5 -12 26 -19 45 l-11
35 4 -45z"/>
<path d="M489 3846 c-133 -28 -295 -108 -431 -213 -32 -24 -58 -50 -58 -56 0
-7 26 -51 58 -99 229 -347 461 -471 748 -398 43 11 133 47 199 79 132 65 378
218 370 231 -2 4 -82 10 -177 14 -262 10 -451 26 -576 47 -157 26 -167 35 -47
44 122 9 333 -7 598 -45 111 -17 205 -26 209 -22 12 12 -184 199 -274 262 -91
65 -183 111 -273 139 -90 28 -253 36 -346 17z"/>
<path d="M2983 3550 c-149 -59 -243 -230 -214 -391 51 -290 356 -468 598 -349
185 91 245 322 135 523 -40 75 -132 161 -210 199 -59 28 -79 32 -162 35 -77 3
-105 -1 -147 -17z"/>
<path d="M4885 3208 c-79 -15 -329 -147 -311 -165 3 -3 1 -12 -4 -18 -8 -9 8
-30 59 -76 135 -125 252 -172 379 -151 76 13 189 65 245 114 l39 33 -50 71
c-111 157 -222 217 -357 192z m-54 -188 c68 -6 138 -15 154 -20 45 -15 -233
-3 -325 14 l-75 13 61 2 c34 0 117 -4 185 -9z"/>
<path d="M1463 2590 c-29 -10 -66 -28 -82 -39 -55 -40 -131 -133 -166 -204
l-34 -72 22 -17 c51 -40 171 -81 250 -86 99 -6 153 14 225 81 70 67 195 268
177 285 -4 4 -59 -21 -123 -55 -115 -60 -213 -104 -262 -117 -24 -7 -25 -7 -5
9 32 26 130 75 255 125 68 28 115 53 115 61 0 22 -119 48 -225 48 -69 0 -110
-5 -147 -19z"/>
<path d="M4410 2142 c-25 -4 -45 -10 -45 -14 0 -4 77 -56 170 -115 309 -198
450 -299 525 -378 34 -35 34 -36 8 -26 -127 48 -305 165 -577 379 -96 76 -147
110 -154 103 -15 -15 55 -247 108 -359 114 -240 285 -392 515 -458 54 -16 98
-19 255 -19 123 1 200 5 218 13 27 11 27 13 27 99 -1 171 -31 315 -96 450 -77
161 -193 254 -381 304 -66 18 -111 22 -303 24 -124 2 -245 0 -270 -3z"/>
<path d="M2571 1783 c-88 -52 -181 -146 -217 -219 -27 -54 -29 -67 -29 -169 0
-89 5 -121 23 -170 32 -86 37 -89 105 -66 198 68 297 179 297 331 0 92 -59
304 -84 302 -5 -1 -33 -73 -62 -161 -71 -213 -119 -306 -79 -151 8 32 40 118
70 191 30 73 55 137 55 141 0 14 -14 9 -79 -29z"/>
</g>
</svg>
