<?xml version="1.0" standalone="no"?>
<!DOCTYPE svg PUBLIC "-//W3C//DTD SVG 20010904//EN"
 "http://www.w3.org/TR/2001/REC-SVG-20010904/DTD/svg10.dtd">
<svg version="1.0" xmlns="http://www.w3.org/2000/svg"
 width="640.000000pt" height="640.000000pt" viewBox="0 0 640.000000 640.000000"
 preserveAspectRatio="xMidYMid meet">

<g transform="translate(0.000000,640.000000) scale(0.100000,-0.100000)"
fill="#000000" stroke="none">
<path d="M2898 6059 c-1064 -112 -1988 -820 -2377 -1819 -130 -333 -191 -665
-191 -1040 0 -298 34 -542 115 -819 271 -927 1022 -1673 1957 -1942 414 -120
904 -143 1328 -64 832 156 1553 674 1978 1422 180 316 303 695 346 1073 20
173 21 485 1 655 -76 653 -360 1241 -824 1706 -470 470 -1079 760 -1741 829
-111 11 -481 11 -592 -1z m711 -449 c154 -27 338 -77 461 -125 744 -290 1302
-914 1495 -1670 61 -238 70 -320 70 -620 0 -301 -13 -407 -80 -648 -236 -860
-948 -1538 -1816 -1731 -203 -44 -271 -51 -539 -51 -268 0 -336 7 -539 51
-868 193 -1580 871 -1816 1731 -67 241 -80 347 -80 648 0 216 4 292 18 380 89
532 316 976 691 1351 368 367 817 600 1318 683 175 29 177 29 448 26 200 -2
268 -7 369 -25z"/>
<path d="M3182 5179 c-20 -6 -41 -23 -52 -42 -18 -29 -20 -51 -20 -234 0 -112
-2 -203 -4 -203 -24 0 -223 -47 -301 -71 -200 -62 -329 -147 -433 -284 -114
-152 -164 -299 -164 -485 -1 -204 50 -338 171 -452 107 -102 225 -153 591
-256 l135 -38 3 -557 2 -557 -28 0 c-49 0 -195 21 -257 36 -33 8 -101 35 -151
59 -149 72 -238 174 -270 310 l-12 53 44 6 c90 12 167 73 180 142 3 19 4 60 2
90 -12 147 -173 232 -334 177 -70 -24 -154 -109 -184 -188 -31 -82 -39 -253
-16 -345 64 -255 276 -460 573 -554 111 -34 260 -64 366 -72 l87 -7 0 -214 0
-215 28 -27 c54 -55 166 -48 202 12 18 29 20 51 20 237 l0 205 108 23 c202 44
400 119 512 195 157 108 280 287 330 481 24 95 27 258 6 358 -43 200 -206 404
-393 489 -74 34 -239 85 -425 130 l-138 33 0 493 0 493 53 0 c70 0 177 -24
243 -54 70 -32 147 -106 179 -170 l25 -52 -43 -46 c-74 -77 -72 -166 7 -244
110 -110 303 -70 375 79 43 90 33 236 -25 355 -58 118 -215 250 -383 322 -86
37 -246 83 -331 95 -25 3 -57 8 -72 11 l-28 6 0 196 c0 137 -4 204 -13 221
-28 54 -99 80 -165 60z m-72 -1244 c0 -256 -3 -465 -6 -465 -20 0 -229 65
-285 89 -200 84 -277 197 -267 390 7 121 34 186 114 271 98 104 262 178 397
179 l47 1 0 -465z m341 -891 c200 -38 350 -104 429 -190 67 -74 92 -143 98
-270 8 -181 -28 -276 -148 -395 -110 -109 -234 -166 -407 -185 l-63 -7 0 532
c0 292 2 531 4 531 2 0 41 -7 87 -16z"/>
</g>
</svg>
