<?xml version="1.0" standalone="no"?>
<!DOCTYPE svg PUBLIC "-//W3C//DTD SVG 20010904//EN"
 "http://www.w3.org/TR/2001/REC-SVG-20010904/DTD/svg10.dtd">
<svg version="1.0" xmlns="http://www.w3.org/2000/svg"
 width="526.000000pt" height="640.000000pt" viewBox="0 0 526.000000 640.000000"
 preserveAspectRatio="xMidYMid meet">

<g transform="translate(0.000000,640.000000) scale(0.100000,-0.100000)"
fill="#000000" stroke="none">
<path d="M2617 6251 c-4 -52 -7 -122 -7 -155 l-1 -61 -19 54 c-40 110 -95 162
-209 195 -70 20 -222 39 -232 29 -13 -13 87 -149 179 -244 85 -89 126 -115
224 -139 26 -7 49 -19 53 -28 3 -9 3 -189 -1 -400 l-7 -383 -23 22 c-13 12
-25 38 -29 65 -8 55 -45 164 -75 224 -39 78 -277 288 -295 261 -8 -14 12 -168
31 -231 52 -175 130 -262 271 -304 29 -8 69 -27 89 -43 l36 -28 -7 -221 c-6
-192 -5 -222 9 -233 8 -7 23 -11 33 -9 17 3 18 27 15 453 -3 383 -1 453 12
468 13 16 22 17 99 9 143 -16 209 8 300 108 59 65 132 192 124 214 -11 29
-270 -5 -362 -48 -60 -27 -93 -66 -139 -164 -16 -34 -33 -62 -38 -62 -4 0 -9
136 -9 303 -1 166 -4 334 -8 372 l-6 70 -8 -94z"/>
<path d="M1017 6113 c-42 -95 -51 -142 -51 -268 0 -87 4 -135 17 -174 9 -30
17 -57 17 -60 0 -3 -21 16 -47 41 -27 25 -75 63 -107 83 -85 54 -239 126 -249
116 -12 -12 19 -124 57 -206 66 -143 127 -181 315 -195 l116 -9 73 -71 c98
-95 210 -149 382 -185 270 -57 307 -67 377 -101 70 -33 182 -125 205 -167 l11
-20 -35 20 c-63 37 -147 63 -204 63 -76 0 -155 -43 -258 -141 -78 -74 -80 -76
-57 -88 15 -8 79 -13 189 -14 192 -1 233 8 327 74 32 22 63 38 71 35 14 -6 84
-146 107 -216 12 -35 20 -46 39 -48 43 -5 51 19 28 77 -60 154 -129 259 -236
361 -87 83 -164 126 -283 159 -41 11 -76 23 -80 26 -3 3 -5 63 -6 133 0 118
-2 131 -27 177 -26 50 -116 144 -193 202 -62 47 -153 95 -159 84 -14 -22 43
-231 86 -315 24 -47 151 -176 221 -224 64 -44 61 -56 -10 -47 -230 27 -379 88
-488 199 -78 79 -146 194 -170 287 -31 119 -15 302 35 417 11 25 19 47 17 49
-2 2 -16 -23 -30 -54z"/>
<path d="M4230 6115 c0 -5 5 -17 10 -25 5 -8 10 -10 10 -5 0 6 -5 17 -10 25
-5 8 -10 11 -10 5z"/>
<path d="M4255 6050 c54 -227 11 -429 -126 -598 -60 -74 -177 -154 -264 -181
-67 -21 -262 -61 -295 -61 -31 0 -14 24 44 64 85 58 182 166 216 239 35 73 85
260 76 283 -5 12 -12 11 -48 -7 -126 -64 -272 -200 -313 -291 -26 -58 -27 -68
-22 -160 3 -54 3 -107 0 -117 -4 -14 -23 -24 -76 -37 -220 -54 -401 -223 -511
-478 -38 -89 -40 -111 -10 -123 27 -10 45 9 69 73 32 85 73 164 89 170 8 3 35
-10 60 -29 86 -66 139 -79 326 -79 102 0 177 5 195 12 l30 12 -70 65 c-182
169 -274 191 -446 106 l-77 -38 29 37 c99 124 220 194 405 233 367 78 445 109
565 225 l72 70 116 9 c142 10 204 34 261 98 57 65 137 280 113 304 -7 7 -55
-13 -143 -57 -98 -50 -150 -83 -196 -126 l-62 -59 15 48 c29 95 18 344 -19
403 -7 11 -8 8 -3 -10z"/>
<path d="M421 5004 c0 -11 3 -14 6 -6 3 7 2 16 -1 19 -3 4 -6 -2 -5 -13z"/>
<path d="M4816 4965 c-4 -19 -25 -70 -46 -113 -80 -160 -264 -294 -465 -338
-87 -20 -239 -24 -368 -10 -90 9 -96 23 -19 42 80 21 142 57 204 121 69 71
190 232 185 247 -2 6 -15 12 -30 14 -41 5 -204 -26 -258 -49 -87 -38 -154
-135 -174 -255 -4 -21 -11 -54 -17 -71 l-10 -33 -132 0 c-73 0 -157 -4 -185
-10 -66 -12 -213 -71 -218 -87 -3 -6 7 -19 20 -28 22 -14 28 -14 78 9 131 60
226 69 589 52 221 -10 294 -2 425 45 44 16 105 45 137 64 71 44 124 46 217 9
118 -47 217 -25 366 81 33 24 80 64 104 89 l44 45 -29 12 c-18 7 -76 9 -159 7
-104 -4 -141 -9 -184 -27 -59 -24 -178 -98 -200 -124 -7 -9 -23 -17 -34 -17
-19 0 -17 4 14 38 43 45 90 118 123 193 24 55 43 129 33 129 -3 0 -8 -16 -11
-35z"/>
<path d="M435 4955 c11 -57 76 -179 131 -247 63 -78 52 -90 -27 -28 -28 22
-89 59 -135 82 -84 41 -85 41 -217 46 -85 2 -142 0 -161 -7 l-29 -12 34 -35
c19 -20 63 -58 98 -85 146 -111 262 -142 376 -98 33 12 83 24 110 26 44 4 58
0 120 -36 38 -22 103 -52 145 -66 131 -43 196 -49 410 -39 367 17 457 9 589
-52 50 -23 56 -23 78 -9 31 21 23 32 -53 66 -100 45 -174 59 -325 59 l-137 0
-10 28 c-6 15 -13 46 -16 69 -17 118 -87 224 -174 261 -49 21 -199 52 -253 52
-15 0 -31 -5 -34 -10 -8 -14 92 -154 173 -241 69 -74 157 -126 231 -136 24 -3
41 -11 41 -18 0 -28 -323 -40 -435 -16 -98 21 -205 67 -286 123 -111 76 -175
160 -226 292 -13 33 -21 48 -18 31z"/>
<path d="M2570 4533 c-98 -9 -193 -28 -268 -53 -334 -114 -592 -398 -679 -748
-26 -106 -24 -351 5 -466 49 -193 144 -357 289 -496 142 -137 283 -217 468
-266 85 -23 122 -27 245 -27 241 -2 411 50 607 185 83 57 211 188 264 268 123
187 174 359 173 585 -1 117 -6 156 -27 238 -112 425 -471 732 -908 777 -56 5
-109 9 -118 8 -9 0 -32 -3 -51 -5z m233 -158 c376 -66 662 -338 744 -709 20
-94 21 -289 0 -382 -73 -336 -329 -605 -662 -695 -119 -33 -356 -33 -474 -1
-266 73 -470 238 -591 479 -63 127 -90 248 -90 407 0 157 21 258 79 382 52
110 90 164 175 252 214 222 516 320 819 267z"/>
<path d="M2505 4299 c-173 -32 -308 -103 -444 -233 -174 -168 -251 -350 -251
-596 0 -152 20 -245 80 -366 144 -293 434 -474 760 -474 570 0 976 546 809
1087 -109 352 -447 597 -817 592 -48 -1 -109 -5 -137 -10z m298 -195 c422 -96
631 -551 430 -937 -50 -97 -163 -210 -260 -260 -394 -205 -863 14 -949 443
-50 251 57 516 265 654 155 104 339 139 514 100z"/>
<path d="M2565 3877 c-114 -38 -217 -126 -261 -222 -50 -109 -50 -247 1 -350
34 -70 119 -156 188 -190 350 -170 724 199 551 544 -42 85 -112 152 -202 194
-55 26 -81 32 -152 34 -52 2 -101 -2 -125 -10z"/>
<path d="M1581 4314 c-36 -7 -68 -17 -73 -22 -9 -9 77 -78 154 -121 l56 -32
22 31 c12 16 43 56 70 87 27 31 46 61 44 65 -8 13 -204 8 -273 -8z"/>
<path d="M3406 4322 c-2 -4 17 -34 44 -65 27 -31 58 -71 70 -87 l21 -30 47 24
c75 38 175 117 163 129 -27 27 -330 52 -345 29z"/>
<path d="M554 4237 c-84 -34 -205 -106 -263 -156 -31 -28 -32 -30 -14 -40 40
-21 214 -43 307 -39 104 5 203 39 314 109 105 65 109 49 12 -48 -74 -74 -95
-103 -133 -183 -25 -52 -54 -126 -64 -165 -22 -90 -50 -126 -110 -148 -82 -30
-170 -92 -203 -144 -34 -54 -90 -217 -93 -272 -2 -43 7 -43 98 0 126 59 178
126 246 319 l38 105 2 -140 3 -140 6 135 c18 365 168 624 417 721 78 30 229
32 321 5 34 -10 62 -21 62 -25 0 -3 -38 -16 -86 -28 -47 -12 -97 -32 -111 -43
-66 -52 -122 -173 -126 -273 -2 -51 -2 -52 26 -50 47 3 192 80 247 130 51 48
52 48 68 146 9 53 21 97 26 97 4 0 32 -14 62 -30 l52 -31 17 23 c15 22 14 24
-7 42 -33 28 -157 83 -225 101 -32 9 -99 16 -149 16 -74 0 -105 -4 -165 -26
-99 -36 -158 -34 -221 7 -108 68 -226 77 -354 25z"/>
<path d="M4419 4247 c-31 -13 -69 -33 -86 -45 -44 -31 -112 -31 -205 1 -92 32
-223 37 -322 11 -73 -19 -197 -78 -222 -105 -17 -19 -17 -21 2 -39 19 -18 20
-18 76 15 32 19 59 31 62 27 2 -4 9 -41 16 -82 7 -41 18 -89 25 -106 17 -40
83 -94 170 -137 158 -77 165 -75 146 32 -23 128 -89 231 -171 264 -19 8 -61
20 -92 27 -32 6 -58 15 -58 19 0 13 119 43 190 49 178 13 358 -86 469 -257 42
-65 111 -231 111 -266 0 -13 -34 -47 -103 -101 -334 -265 -891 -814 -1397
-1376 -73 -82 -136 -148 -140 -148 -8 0 -30 174 -33 260 l-2 54 117 42 c242
86 415 213 560 410 116 158 199 404 197 583 0 78 -10 62 -34 -54 -46 -221
-150 -410 -308 -562 -45 -43 -108 -95 -139 -116 -92 -60 -236 -125 -343 -154
-90 -24 -117 -27 -275 -27 -152 -1 -186 2 -264 23 -416 109 -709 410 -801 822
-34 154 -33 150 -34 68 -4 -256 124 -538 336 -740 129 -123 250 -195 426 -254
l102 -34 3 -51 c5 -90 -58 -470 -78 -470 -4 0 -67 27 -141 61 -74 33 -208 85
-299 116 -150 51 -173 56 -275 61 -130 5 -164 -3 -225 -55 -53 -46 -79 -102
-80 -171 l0 -53 203 -202 c382 -380 614 -695 1007 -1371 57 -97 114 -186 128
-196 17 -14 40 -20 72 -20 66 0 97 31 140 140 121 307 362 819 525 1113 378
687 783 1241 1313 1797 l119 124 69 -31 c40 -18 73 -27 78 -22 6 5 1 38 -11
83 l-20 75 139 138 c178 176 198 206 198 289 0 53 -4 67 -26 94 -56 65 -153
92 -259 70 -76 -15 -215 -81 -325 -153 -48 -32 -89 -52 -94 -47 -4 4 -12 29
-17 55 -13 69 -89 221 -143 288 -27 32 -70 76 -98 98 -47 37 -48 39 -23 39 15
0 39 -8 53 -19 45 -31 164 -88 232 -110 43 -14 89 -21 145 -21 86 0 264 26
279 41 24 22 -122 128 -256 187 -69 30 -97 36 -168 39 -72 3 -94 0 -141 -20z"/>
</g>
</svg>
