<?xml version="1.0" encoding="utf-8"?>
<!-- Generator: Adobe Illustrator 16.0.0, SVG Export Plug-In . SVG Version: 6.00 Build 0)  -->
<!DOCTYPE svg PUBLIC "-//W3C//DTD SVG 1.1//EN" "http://www.w3.org/Graphics/SVG/1.1/DTD/svg11.dtd">
<svg version="1.1" id="Layer_1" xmlns="http://www.w3.org/2000/svg" xmlns:xlink="http://www.w3.org/1999/xlink" x="0px" y="0px"
	 width="112.5px" height="165px" viewBox="0 0 112.5 165" enable-background="new 0 0 112.5 165" xml:space="preserve">
<g>
	<g>
		<path fill="#964621" d="M104.283,108.598c-0.237,0-0.469-0.091-0.646-0.26L57.025,62.805l-44.893,45.533
			c-0.265,0.257-0.656,0.336-0.997,0.193c-0.342-0.141-0.563-0.476-0.563-0.847V94.886c0-0.249,0.1-0.484,0.279-0.656l45.411-44.687
			c0.351-0.339,1.134-0.341,1.485-0.008l47.163,43.773c0.185,0.17,0.288,0.414,0.288,0.667v13.71c0,0.371-0.221,0.706-0.562,0.847
			C104.52,108.58,104.402,108.598,104.283,108.598z"/>
		<path fill="#CB7040" d="M22.761,77.21c-0.118,0-0.242-0.024-0.356-0.072c-0.338-0.144-0.558-0.476-0.558-0.844V64.258
			c0-0.243,0.099-0.475,0.269-0.646l34.29-34.439c0.353-0.35,0.978-0.355,1.339-0.014l35.891,33.981
			c0.185,0.172,0.288,0.411,0.288,0.663v12.492c0,0.366-0.22,0.696-0.555,0.841c-0.334,0.145-0.722,0.078-0.987-0.171l-35.36-32.928
			L23.398,76.951C23.225,77.121,22.995,77.21,22.761,77.21z"/>
		<path fill="#BE9577" d="M81.14,46.924c-0.236,0-0.47-0.092-0.646-0.268L57.025,24.101L35.271,46.658
			c-0.262,0.261-0.653,0.339-0.994,0.196c-0.342-0.141-0.562-0.476-0.562-0.843V32.81c0-0.245,0.095-0.481,0.273-0.652l22.472-22.8
			c0.356-0.35,0.788-0.348,1.143,0.006l24.184,23.143c0.174,0.172,0.267,0.404,0.267,0.647v12.858c0,0.37-0.223,0.703-0.565,0.843
			C81.379,46.902,81.26,46.924,81.14,46.924z"/>
		<path fill="#4E2113" d="M96.169,108.598H19.6c-0.372,0-0.702-0.221-0.846-0.562c-0.14-0.343-0.063-0.735,0.199-0.997
			l37.425-37.485c0.352-0.35,0.924-0.358,1.282-0.014l39.14,37.486c0.272,0.259,0.358,0.653,0.222,1.001
			C96.878,108.375,96.541,108.598,96.169,108.598z"/>
	</g>
	<g>
		<path fill="#25160F" d="M10.721,128.077c0.691-0.884,1.703-1.322,3.03-1.322c2.292,0,3.957,1.057,4.993,3.179
			c0.583,1.18,0.873,2.511,0.873,3.994c0,3.465-0.854,5.747-2.562,6.84c-0.911,0.579-2.075,0.87-3.495,0.87
			c-0.69,0-1.297-0.139-1.813-0.418c-0.52-0.273-0.862-0.539-1.025-0.786v6.552H7.803v-19.988h2.918V128.077z M10.721,137.766
			c0.904,0.934,1.883,1.402,2.949,1.402c1.111,0,1.906-0.479,2.386-1.433c0.43-0.834,0.644-2.091,0.644-3.766
			c0-1.847-0.298-3.123-0.902-3.83c-0.509-0.614-1.264-0.917-2.266-0.917c-1.046,0-1.917,0.471-2.62,1.403
			c-0.116,0.165-0.179,0.254-0.191,0.262V137.766z"/>
		<path fill="#25160F" d="M21.434,141.391v-14.394h2.921v1.983c0.035-0.051,0.116-0.165,0.242-0.359l0.328-0.488
			c0.672-0.918,1.786-1.378,3.327-1.378c0.167,0,0.329,0.013,0.493,0.038v2.444c-1.653,0.026-2.845,0.484-3.574,1.38
			c-0.327,0.398-0.601,0.909-0.816,1.539v9.234H21.434z"/>
		<path fill="#25160F" d="M29.236,134.188c0-2.275,0.526-4.08,1.576-5.423c1.052-1.345,2.491-2.01,4.334-2.01
			c1.216,0,2.273,0.309,3.163,0.927c1.812,1.261,2.716,3.436,2.716,6.523c0,3.847-1.201,6.202-3.604,7.082
			c-0.664,0.238-1.42,0.368-2.271,0.368c-0.85,0-1.61-0.13-2.282-0.368c-0.676-0.25-1.234-0.589-1.68-1.027
			c-0.446-0.432-0.818-0.975-1.118-1.609C29.515,137.471,29.236,135.979,29.236,134.188z M32.237,132.537
			c-0.054,0.484-0.081,1.003-0.081,1.556c0,0.555,0.026,1.059,0.081,1.499c0.056,0.448,0.153,0.896,0.297,1.34
			c0.137,0.444,0.318,0.834,0.536,1.158c0.49,0.727,1.183,1.092,2.077,1.092c1.971,0,2.958-1.658,2.958-4.977
			c0-1.948-0.29-3.299-0.873-4.055c-0.474-0.618-1.169-0.928-2.085-0.928C33.461,129.223,32.494,130.331,32.237,132.537z"/>
		<path fill="#25160F" d="M40.713,143.645c0.908,0,1.563-0.149,1.964-0.448c0.4-0.293,0.601-0.997,0.601-2.103v-14.097h2.919v14.49
			c0,1.546-0.251,2.626-0.751,3.247c-0.189,0.239-0.365,0.432-0.525,0.578c-0.16,0.152-0.384,0.278-0.676,0.388
			c-0.292,0.1-0.537,0.179-0.739,0.235c-0.196,0.053-0.484,0.091-0.855,0.123c-0.482,0.035-1.092,0.056-1.827,0.056L40.713,143.645z
			 M43.086,125.745v-3.317h3.302v3.317H43.086z"/>
		<path fill="#25160F" d="M48.835,138.601c-0.288-0.621-0.484-1.264-0.6-1.92c-0.114-0.662-0.174-1.489-0.174-2.498
			c0-1.008,0.121-1.984,0.354-2.923c0.239-0.948,0.542-1.701,0.917-2.265c0.372-0.559,0.823-1.012,1.35-1.354
			c0.902-0.592,1.957-0.887,3.181-0.887c1.145,0,2.146,0.341,3,1.021c1.6,1.289,2.366,3.688,2.291,7.188h-8.172
			c0,1.841,0.486,3.077,1.461,3.716c0.502,0.327,1.027,0.488,1.574,0.488c0.551,0,1.008-0.066,1.371-0.205
			c0.365-0.132,0.657-0.29,0.875-0.46c0.218-0.176,0.419-0.376,0.6-0.606c0.244-0.315,0.411-0.586,0.507-0.815l1.854,1.2
			c-0.674,1.175-1.394,2.009-2.157,2.509c-0.847,0.565-1.775,0.848-2.788,0.848c-1.02,0-1.88-0.13-2.595-0.395
			c-0.714-0.266-1.295-0.614-1.745-1.048C49.489,139.754,49.122,139.229,48.835,138.601z M51.12,132.499h5.049
			c0-0.711-0.123-1.322-0.367-1.844c-0.476-0.956-1.13-1.433-1.964-1.433c-0.504,0-0.942,0.114-1.318,0.336
			c-0.377,0.219-0.662,0.514-0.852,0.863C51.302,131.088,51.12,131.777,51.12,132.499z"/>
		<path fill="#25160F" d="M60.833,134.3c0-2.861,0.623-4.889,1.867-6.101c0.983-0.962,2.359-1.444,4.128-1.444
			c1.77,0,3.156,0.744,4.154,2.234c0.329,0.479,0.555,0.931,0.686,1.354l-2.473,1.091c-0.071-0.748-0.377-1.335-0.914-1.773
			c-0.363-0.288-0.813-0.438-1.35-0.438c-2.119,0-3.176,1.65-3.176,4.956c0,1.624,0.275,2.863,0.828,3.715
			c0.555,0.848,1.366,1.274,2.43,1.274c0.744,0,1.352-0.271,1.812-0.818c0.404-0.474,0.693-0.979,0.876-1.515l2.236,0.983
			c-0.207,0.809-0.654,1.579-1.336,2.305c-0.955,1.009-2.178,1.515-3.67,1.515C62.865,141.638,60.833,139.189,60.833,134.3z"/>
		<path fill="#25160F" d="M73.04,129.465v-2.468h2.146v-5.252h2.921v5.252h3.013v2.468h-3.013v7.725
			c0,0.772,0.139,1.303,0.418,1.587c0.273,0.288,0.742,0.432,1.394,0.432c0.266,0,0.532-0.019,0.801-0.054
			c0.269-0.034,0.4-0.057,0.4-0.069v2.064c-0.491,0.227-0.869,0.371-1.14,0.433c-0.269,0.066-0.593,0.096-0.982,0.096
			c-0.383,0-0.671-0.003-0.858-0.014c-0.185-0.009-0.411-0.038-0.682-0.095c-0.269-0.056-0.5-0.132-0.695-0.227
			c-0.196-0.093-0.395-0.235-0.609-0.418c-0.209-0.177-0.381-0.396-0.516-0.652c-0.3-0.583-0.451-1.336-0.451-2.263v-8.545H73.04z"
			/>
		<path fill="#25160F" d="M83.844,137.723v-10.726h1.801v10.726c0,0.678,0.242,1.236,0.729,1.654
			c0.488,0.427,1.013,0.634,1.576,0.634c1.347,0,2.744-0.781,4.189-2.357v-10.656h1.799v14.394h-1.799v-2.372
			c-1.293,1.263-2.396,2.038-3.314,2.319c-0.446,0.133-0.908,0.205-1.391,0.205c-1.048,0-1.906-0.317-2.581-0.957
			C84.179,139.951,83.844,138.994,83.844,137.723z"/>
		<path fill="#25160F" d="M96.904,146.985v-19.988h1.798v2.24c0.22-0.409,0.577-0.82,1.076-1.228c0.948-0.772,1.937-1.16,2.961-1.16
			c1.91,0,3.367,1.045,4.366,3.137c0.574,1.203,0.86,2.515,0.86,3.941c0,2.512-0.612,4.508-1.842,5.991
			c-0.892,1.082-2.078,1.624-3.562,1.624c-0.836,0-1.644-0.253-2.428-0.758c-0.783-0.504-1.261-0.939-1.433-1.303v7.503H96.904z
			 M98.702,137.927c0.416,0.603,0.929,1.097,1.529,1.496c0.6,0.393,1.169,0.588,1.711,0.588c0.541,0,0.997-0.048,1.364-0.154
			c0.369-0.103,0.732-0.297,1.09-0.571c0.362-0.278,0.667-0.639,0.922-1.086c0.563-0.979,0.846-2.403,0.846-4.271
			c0-2.271-0.526-3.873-1.583-4.8c-0.562-0.5-1.274-0.751-2.128-0.751c-1.147,0-2.145,0.484-3.002,1.444
			c-0.216,0.251-0.467,0.561-0.749,0.943V137.927z"/>
	</g>
	<g>
		<path fill="#25160F" d="M30.059,157.843v-5.767h0.518v0.647c0.063-0.123,0.165-0.238,0.313-0.356
			c0.272-0.227,0.557-0.335,0.854-0.335c0.551,0,0.969,0.3,1.26,0.905c0.165,0.345,0.248,0.726,0.248,1.14
			c0,0.724-0.177,1.299-0.532,1.726c-0.258,0.314-0.599,0.467-1.027,0.467c-0.242,0-0.474-0.075-0.7-0.218
			c-0.225-0.144-0.365-0.27-0.415-0.374v2.165H30.059z M30.577,155.23c0.121,0.169,0.269,0.313,0.441,0.429
			c0.174,0.114,0.339,0.17,0.495,0.17c0.158,0,0.288-0.012,0.391-0.046c0.107-0.027,0.212-0.082,0.318-0.163
			c0.1-0.081,0.191-0.186,0.263-0.313c0.165-0.282,0.244-0.695,0.244-1.23c0-0.656-0.153-1.122-0.457-1.392
			c-0.161-0.145-0.369-0.213-0.612-0.213c-0.334,0-0.62,0.139-0.864,0.418c-0.065,0.068-0.139,0.16-0.22,0.272V155.23z"/>
		<path fill="#25160F" d="M34.02,156.226v-4.149h0.518v1.12c0.123-0.276,0.216-0.46,0.283-0.567c0.256-0.4,0.59-0.597,1.002-0.597
			c0.03,0,0.074,0.003,0.139,0.005v0.444c-0.177,0.021-0.327,0.057-0.442,0.101c-0.118,0.045-0.233,0.112-0.348,0.203
			c-0.195,0.165-0.411,0.49-0.634,0.977v2.464H34.02z"/>
		<path fill="#25160F" d="M36.356,154.125c0-0.634,0.142-1.144,0.426-1.524c0.285-0.377,0.683-0.568,1.196-0.568
			c0.511,0,0.906,0.191,1.19,0.575c0.281,0.385,0.423,0.896,0.423,1.535c0,0.639-0.142,1.154-0.425,1.545
			c-0.286,0.39-0.685,0.59-1.188,0.59c-0.518,0-0.918-0.208-1.206-0.607C36.495,155.274,36.356,154.759,36.356,154.125z
			 M36.875,154.151c0,0.83,0.218,1.356,0.648,1.579c0.131,0.072,0.282,0.103,0.455,0.103c0.17,0,0.323-0.03,0.453-0.103
			c0.132-0.069,0.239-0.154,0.318-0.263c0.081-0.104,0.144-0.237,0.193-0.39c0.086-0.266,0.128-0.574,0.128-0.926
			c0-1.118-0.365-1.68-1.095-1.68C37.239,152.473,36.875,153.033,36.875,154.151z"/>
		<path fill="#25160F" d="M39.639,157.112c0.254,0,0.437-0.044,0.551-0.135c0.11-0.086,0.168-0.299,0.168-0.64v-4.262h0.52v4.149
			c0,0.453-0.054,0.766-0.165,0.939c-0.044,0.062-0.081,0.118-0.116,0.161c-0.03,0.046-0.084,0.083-0.146,0.113
			c-0.064,0.031-0.117,0.051-0.16,0.064c-0.043,0.018-0.104,0.026-0.188,0.035c-0.107,0.011-0.204,0.014-0.293,0.014h-0.14
			L39.639,157.112z M40.323,151.549v-0.59h0.592v0.59H40.323z"/>
		<path fill="#25160F" d="M42,155.646c-0.128-0.191-0.225-0.409-0.295-0.643c-0.063-0.235-0.099-0.482-0.099-0.742
			s0.018-0.5,0.056-0.715c0.037-0.212,0.084-0.393,0.144-0.544c0.062-0.149,0.135-0.279,0.223-0.398
			c0.086-0.116,0.173-0.211,0.265-0.279c0.091-0.073,0.191-0.126,0.3-0.176c0.185-0.077,0.363-0.117,0.532-0.117
			c0.167,0,0.311,0.018,0.428,0.046c0.118,0.026,0.246,0.093,0.377,0.184c0.137,0.097,0.253,0.215,0.349,0.367
			c0.229,0.36,0.341,0.883,0.341,1.58h-2.497c0,0.7,0.178,1.178,0.53,1.435c0.176,0.124,0.371,0.186,0.586,0.186
			c0.404,0,0.75-0.249,1.032-0.751l0.358,0.247c-0.104,0.191-0.235,0.362-0.402,0.511c-0.313,0.29-0.625,0.434-0.932,0.434
			s-0.567-0.056-0.781-0.166C42.298,155.99,42.128,155.836,42,155.646z M42.149,153.765h1.95c0-0.388-0.089-0.714-0.27-0.971
			c-0.151-0.212-0.365-0.321-0.648-0.321c-0.46,0-0.767,0.211-0.92,0.639C42.186,153.312,42.149,153.533,42.149,153.765z"/>
		<path fill="#25160F" d="M45.463,156.226v-5.963h0.518v3.867l1.592-2.054h0.622l-1.083,1.413l1.325,2.736h-0.574l-1.108-2.289
			l-0.774,0.957v1.332H45.463z"/>
		<path fill="#25160F" d="M48.832,154.183c0-1.433,0.559-2.15,1.675-2.15c0.274,0,0.506,0.066,0.695,0.196
			c0.186,0.13,0.309,0.248,0.37,0.356c0.104,0.178,0.179,0.325,0.218,0.444l-0.418,0.183c-0.005-0.049-0.033-0.127-0.086-0.23
			c-0.053-0.097-0.105-0.184-0.161-0.245c-0.06-0.068-0.144-0.129-0.253-0.185c-0.105-0.049-0.23-0.079-0.365-0.079
			c-0.771,0-1.155,0.561-1.155,1.673c0,0.541,0.104,0.957,0.306,1.247c0.204,0.293,0.488,0.437,0.85,0.437
			c0.248,0,0.457-0.095,0.623-0.286c0.143-0.167,0.241-0.313,0.288-0.44l0.037-0.09l0.409,0.198
			c-0.095,0.257-0.242,0.484-0.451,0.693c-0.096,0.094-0.225,0.173-0.388,0.252c-0.164,0.075-0.337,0.113-0.518,0.113
			c-0.574,0-0.994-0.179-1.268-0.544C48.971,155.355,48.832,154.846,48.832,154.183z M49.633,150.677l0.256-0.256l0.618,0.621
			l0.613-0.618l0.258,0.253l-0.871,0.872L49.633,150.677z"/>
		<path fill="#25160F" d="M52.656,156.226v-4.149h0.52v0.68c0.231-0.227,0.449-0.409,0.656-0.532
			c0.209-0.125,0.453-0.191,0.732-0.191c0.283,0,0.516,0.091,0.712,0.275c0.193,0.187,0.292,0.46,0.292,0.83v3.088H55.05v-3.088
			c0-0.2-0.072-0.361-0.212-0.484c-0.144-0.119-0.293-0.181-0.457-0.181c-0.39,0-0.79,0.227-1.206,0.682v3.071H52.656z"/>
		<path fill="#25160F" d="M56.507,156.226v-4.149h0.521v4.149H56.507z M56.714,151.48l1.162-1.162l0.34,0.345l-1.243,1.074
			L56.714,151.48z"/>
		<path fill="#25160F" d="M60.169,156.226v-5.963h0.518v3.867l1.593-2.054h0.623l-1.088,1.413l1.33,2.736H62.57l-1.112-2.289
			l-0.771,0.957v1.332H60.169z"/>
		<path fill="#25160F" d="M63.527,155.215c0-0.189,0.022-0.352,0.068-0.497c0.049-0.135,0.123-0.258,0.225-0.37
			c0.102-0.109,0.216-0.202,0.346-0.29c0.127-0.082,0.288-0.157,0.479-0.225c0.348-0.124,0.772-0.238,1.278-0.339
			c0-0.409-0.081-0.689-0.239-0.826c-0.142-0.127-0.349-0.187-0.618-0.187c-0.33,0-0.614,0.126-0.856,0.379
			c-0.104,0.099-0.17,0.19-0.209,0.277l-0.375-0.253c0.293-0.566,0.793-0.848,1.497-0.848c0.636,0,1.039,0.244,1.213,0.73
			c0.072,0.198,0.109,0.436,0.109,0.718v2.161c0,0.079,0.012,0.18,0.042,0.306c0.028,0.139,0.053,0.227,0.077,0.273h-0.523
			c-0.077-0.038-0.117-0.256-0.117-0.658c-0.372,0.476-0.779,0.713-1.222,0.713c-0.495,0-0.84-0.176-1.029-0.523
			C63.573,155.583,63.527,155.402,63.527,155.215z M64.146,154.764c-0.067,0.119-0.101,0.277-0.101,0.471
			c0,0.194,0.07,0.346,0.206,0.451c0.137,0.098,0.287,0.15,0.456,0.15c0.165,0,0.314-0.022,0.438-0.071
			c0.131-0.05,0.243-0.116,0.351-0.195c0.189-0.141,0.335-0.272,0.429-0.388v-1.245c-0.499,0.132-0.794,0.209-0.885,0.241
			C64.577,154.325,64.28,154.521,64.146,154.764z"/>
		<path fill="#25160F" d="M67.368,156.226v-4.149h0.52v0.68c0.23-0.227,0.451-0.409,0.66-0.532c0.207-0.125,0.451-0.191,0.73-0.191
			c0.277,0,0.518,0.091,0.715,0.275c0.19,0.187,0.287,0.46,0.287,0.83v3.088h-0.518v-3.088c0-0.2-0.073-0.361-0.212-0.484
			c-0.139-0.119-0.292-0.181-0.455-0.181c-0.387,0-0.79,0.227-1.208,0.682v3.071H67.368z"/>
		<path fill="#25160F" d="M71.008,154.183c0-1.433,0.56-2.15,1.675-2.15c0.275,0,0.509,0.066,0.694,0.196
			c0.19,0.13,0.312,0.248,0.373,0.356c0.104,0.178,0.177,0.325,0.217,0.444l-0.421,0.183c-0.004-0.049-0.033-0.127-0.083-0.23
			c-0.051-0.097-0.104-0.184-0.163-0.245c-0.056-0.068-0.14-0.129-0.249-0.185c-0.108-0.049-0.229-0.079-0.368-0.079
			c-0.771,0-1.153,0.561-1.153,1.673c0,0.541,0.1,0.957,0.307,1.247c0.202,0.293,0.484,0.437,0.847,0.437
			c0.251,0,0.456-0.095,0.621-0.286c0.144-0.167,0.24-0.313,0.291-0.44l0.033-0.09l0.411,0.198
			c-0.093,0.257-0.244,0.484-0.451,0.693c-0.097,0.094-0.223,0.173-0.386,0.252c-0.162,0.075-0.337,0.113-0.52,0.113
			c-0.573,0-0.994-0.179-1.267-0.544C71.145,155.355,71.008,154.846,71.008,154.183z"/>
		<path fill="#25160F" d="M75.049,155.646c-0.13-0.191-0.229-0.409-0.295-0.643c-0.068-0.235-0.101-0.482-0.101-0.742
			s0.018-0.5,0.059-0.715c0.033-0.212,0.082-0.393,0.142-0.544c0.063-0.149,0.136-0.279,0.222-0.398
			c0.086-0.116,0.177-0.211,0.269-0.279c0.091-0.073,0.191-0.126,0.298-0.176c0.188-0.077,0.363-0.117,0.532-0.117
			s0.311,0.018,0.427,0.046c0.119,0.026,0.245,0.093,0.381,0.184c0.139,0.097,0.253,0.215,0.35,0.367
			c0.225,0.36,0.337,0.883,0.337,1.58h-2.493c0,0.7,0.174,1.178,0.532,1.435c0.176,0.124,0.368,0.186,0.583,0.186
			c0.407,0,0.751-0.249,1.035-0.751l0.354,0.247c-0.1,0.191-0.236,0.362-0.401,0.511c-0.314,0.29-0.625,0.434-0.935,0.434
			c-0.304,0-0.566-0.056-0.781-0.166C75.349,155.99,75.175,155.836,75.049,155.646z M75.197,153.765h1.953
			c0-0.388-0.094-0.714-0.272-0.971c-0.151-0.212-0.369-0.321-0.651-0.321c-0.456,0-0.762,0.211-0.92,0.639
			C75.236,153.312,75.197,153.533,75.197,153.765z"/>
		<path fill="#25160F" d="M78.507,156.238v-5.976h0.521v5.976H78.507z"/>
		<path fill="#25160F" d="M79.927,155.215c0-0.189,0.021-0.352,0.068-0.497c0.05-0.135,0.12-0.258,0.224-0.37
			c0.098-0.109,0.216-0.202,0.342-0.29c0.132-0.082,0.288-0.157,0.481-0.225c0.349-0.124,0.775-0.238,1.279-0.339
			c0-0.409-0.077-0.689-0.24-0.826c-0.143-0.127-0.348-0.187-0.618-0.187c-0.33,0-0.616,0.126-0.853,0.379
			c-0.103,0.099-0.174,0.19-0.213,0.277l-0.374-0.253c0.293-0.566,0.794-0.848,1.499-0.848c0.632,0,1.036,0.244,1.21,0.73
			c0.072,0.198,0.108,0.436,0.108,0.718v2.161c0,0.079,0.013,0.18,0.046,0.306c0.028,0.139,0.055,0.227,0.077,0.273h-0.526
			c-0.077-0.038-0.116-0.256-0.116-0.658c-0.368,0.476-0.777,0.713-1.226,0.713c-0.491,0-0.832-0.176-1.024-0.523
			C79.973,155.583,79.927,155.402,79.927,155.215z M80.541,154.764c-0.064,0.119-0.098,0.277-0.098,0.471
			c0,0.194,0.068,0.346,0.203,0.451c0.139,0.098,0.29,0.15,0.457,0.15c0.166,0,0.314-0.022,0.44-0.071
			c0.13-0.05,0.246-0.116,0.351-0.195c0.19-0.141,0.334-0.272,0.427-0.388v-1.245c-0.5,0.132-0.791,0.209-0.887,0.241
			C80.975,154.325,80.679,154.521,80.541,154.764z M81.469,151.48l1.162-1.162l0.342,0.345l-1.244,1.074L81.469,151.48z"/>
		<path fill="#25160F" d="M83.767,156.226v-4.149h0.521v1.12c0.121-0.276,0.216-0.46,0.28-0.567c0.258-0.4,0.592-0.597,1.003-0.597
			c0.027,0,0.077,0.003,0.137,0.005v0.444c-0.176,0.021-0.323,0.057-0.44,0.101c-0.121,0.045-0.233,0.112-0.35,0.203
			c-0.195,0.165-0.405,0.49-0.63,0.977v2.464H83.767z M83.864,150.677l0.257-0.256l0.618,0.621l0.614-0.618l0.26,0.253l-0.874,0.872
			L83.864,150.677z"/>
	</g>
</g>
</svg>
