<?xml version="1.0" standalone="no"?>
<!DOCTYPE svg PUBLIC "-//W3C//DTD SVG 20010904//EN"
 "http://www.w3.org/TR/2001/REC-SVG-20010904/DTD/svg10.dtd">
<svg version="1.0" xmlns="http://www.w3.org/2000/svg"
 width="1320.000000pt" height="1320.000000pt" viewBox="0 0 1320.000000 1320.000000"
 preserveAspectRatio="xMidYMid meet">
<metadata>
Created by potrace 1.14, written by Peter Selinger 2001-2017
</metadata>
<g transform="translate(0.000000,1320.000000) scale(0.100000,-0.100000)"
fill="#000000" stroke="none">
<path d="M6223 12053 c-226 -230 -505 -513 -620 -630 -114 -116 -341 -347
-504 -512 -176 -178 -298 -310 -300 -323 -7 -42 -3 -1062 4 -1090 8 -30 50
-56 83 -51 11 2 94 81 185 175 90 94 200 208 244 253 44 46 170 176 280 290
110 114 246 255 303 313 56 58 102 106 102 107 0 1 59 62 130 135 72 74 130
134 130 135 0 1 44 47 98 102 53 55 144 148 201 207 l103 107 61 -58 c34 -32
112 -107 175 -168 63 -60 140 -135 172 -165 31 -30 149 -143 261 -252 112
-108 227 -217 254 -243 44 -42 330 -317 546 -525 43 -41 151 -145 240 -230 89
-85 168 -161 175 -167 7 -7 28 -13 48 -13 27 0 39 6 53 28 18 26 19 54 18 563
l0 537 -82 78 c-100 97 -315 303 -686 657 -76 73 -187 179 -247 237 -60 58
-175 168 -256 245 -81 77 -175 167 -209 200 -34 33 -140 134 -235 225 -95 91
-193 184 -217 208 -30 28 -53 42 -71 42 -23 0 -99 -73 -439 -417z"/>
<path d="M5717 9966 c-505 -507 -950 -954 -989 -993 -38 -40 -74 -73 -78 -73
-5 0 -10 -4 -12 -10 -1 -5 -180 -187 -395 -404 -356 -357 -393 -397 -394 -428
0 -18 -1 -248 -1 -512 0 -453 1 -479 18 -497 25 -25 64 -30 91 -13 20 12 117
107 588 569 68 66 267 262 445 435 177 173 388 380 470 460 403 395 854 836
1015 994 99 97 183 176 188 176 4 0 20 -12 36 -27 16 -16 71 -67 122 -115 52
-47 117 -108 145 -135 28 -26 100 -93 159 -148 60 -55 125 -116 146 -135 20
-19 81 -75 134 -125 54 -49 117 -108 140 -130 24 -22 91 -85 150 -140 59 -55
125 -116 145 -135 31 -29 126 -118 284 -265 18 -16 88 -82 156 -145 177 -165
178 -167 281 -261 52 -48 126 -117 164 -154 39 -37 87 -82 108 -100 21 -19 97
-89 169 -157 72 -68 148 -139 169 -158 40 -37 227 -211 264 -245 60 -57 75
-67 100 -69 17 -2 37 5 53 19 l27 23 0 508 c0 280 -1 519 -3 531 -5 25 -25 47
-164 178 -330 311 -548 518 -629 595 -31 30 -112 107 -179 170 -68 63 -147
138 -175 165 -29 28 -117 111 -195 185 -79 74 -164 155 -190 180 -26 25 -112
106 -190 180 -79 74 -187 176 -239 226 -53 50 -119 113 -148 140 -47 45 -248
235 -364 344 -96 91 -313 296 -366 348 -64 61 -81 71 -114 70 -18 -1 -261
-239 -942 -922z"/>
<path d="M6633 9251 c-20 -5 -226 -204 -943 -911 -103 -102 -212 -209 -241
-237 -30 -29 -59 -58 -65 -65 -7 -7 -168 -166 -359 -353 -191 -187 -456 -447
-588 -578 -133 -131 -402 -395 -597 -587 -706 -694 -878 -865 -887 -885 -5
-12 -9 -240 -8 -547 l0 -527 25 -26 c44 -47 69 -33 233 132 166 168 503 510
1152 1168 248 252 551 560 675 685 124 125 439 445 700 710 867 879 927 940
933 940 3 0 57 -51 120 -112 63 -62 237 -232 386 -378 150 -146 334 -326 410
-400 76 -74 274 -268 440 -430 166 -162 380 -371 474 -463 95 -93 300 -293
456 -445 156 -152 340 -333 410 -401 69 -67 260 -254 424 -415 165 -160 367
-358 450 -439 160 -157 192 -181 230 -172 54 14 54 13 52 625 -1 311 -3 568
-4 572 0 4 -7 13 -14 20 -13 12 -193 180 -261 242 -17 15 -60 56 -96 90 -64
59 -265 246 -319 295 -25 23 -199 184 -265 246 -18 17 -84 77 -146 135 -62 58
-132 123 -155 145 -23 22 -84 78 -135 125 -51 47 -107 99 -125 115 -47 45
-265 248 -300 279 -52 48 -225 209 -280 261 -29 28 -90 84 -135 125 -46 41
-103 94 -127 117 -40 38 -192 179 -268 248 -16 15 -66 62 -111 104 -44 42
-130 121 -190 176 -59 55 -123 114 -140 130 -18 17 -80 75 -140 130 -59 55
-122 114 -140 130 -57 54 -228 213 -259 241 -16 15 -68 62 -114 106 -46 43
-89 78 -96 78 -8 0 -19 2 -27 4 -7 2 -23 1 -35 -3z"/>
<path d="M6635 7650 c-30 -12 -3024 -3015 -3035 -3045 -13 -33 4 -70 39 -84
18 -7 1022 -9 3107 -8 2773 2 3082 4 3096 18 9 8 19 29 22 47 8 35 8 36 -298
327 -87 83 -197 188 -246 235 -48 47 -154 148 -235 225 -81 77 -182 174 -225
215 -43 41 -131 126 -196 189 -268 256 -482 460 -555 531 -43 41 -146 140
-229 220 -84 80 -187 179 -230 220 -43 41 -156 149 -251 240 -95 91 -193 185
-219 210 -26 25 -125 119 -220 210 -95 91 -191 183 -214 206 -45 44 -79 57
-111 44z"/>
<path d="M8155 3460 l-40 -5 0 -208 0 -208 -30 1 c-16 1 -55 2 -86 1 l-55 -1
0 -97 1 -98 40 0 c22 0 43 -4 47 -10 5 -7 8 -6 8 0 0 12 55 13 67 2 4 -5 8
-176 8 -380 1 -318 4 -380 18 -428 22 -74 75 -129 142 -149 72 -21 208 -16
268 9 l47 20 0 79 0 80 -72 -3 c-89 -2 -138 19 -156 69 -8 22 -12 137 -12 369
0 307 5 370 25 337 4 -6 13 -7 23 -2 9 4 56 7 105 7 l87 -2 0 99 0 98 -42 1
c-24 0 -78 0 -120 -1 l-78 -1 0 210 0 209 -77 4 c-43 2 -96 1 -118 -2z"/>
<path d="M5549 3399 c-4 -38 -1 -239 3 -250 4 -11 30 -13 132 -11 l126 3 0
132 0 132 -130 1 c-71 1 -130 -3 -131 -7z"/>
<path d="M3115 3053 c-26 -6 -86 -34 -103 -48 -7 -5 -19 -16 -27 -22 -20 -19
-31 -16 -31 7 0 11 5 20 10 20 6 0 4 6 -4 14 -14 13 -96 20 -210 17 l-25 -1 1
-792 c1 -436 2 -796 3 -801 0 -4 52 -7 114 -6 l114 2 0 71 c1 39 2 85 2 101 1
17 0 69 -1 118 -2 48 0 87 4 87 4 0 5 6 2 13 -2 7 -6 36 -7 65 -4 54 8 67 33
37 13 -16 62 -43 95 -52 11 -4 59 -7 106 -9 168 -6 286 49 385 178 17 22 62
139 70 183 3 22 9 49 11 60 10 44 11 283 2 325 -6 25 -13 56 -15 70 -5 28 -10
40 -50 124 -27 55 -154 204 -154 181 0 -6 -3 -6 -8 0 -19 29 -119 57 -207 60
-49 1 -99 0 -110 -2z m95 -193 c0 -3 14 -5 31 -6 92 -3 166 -97 186 -235 8
-55 8 -217 0 -284 -9 -81 -44 -171 -83 -212 -7 -7 -30 -22 -52 -33 -86 -45
-220 -17 -302 61 l-35 34 2 100 c0 55 2 114 2 130 1 17 1 68 1 115 0 82 0 103
-2 145 -1 50 4 64 41 102 43 46 83 70 132 78 18 3 34 7 36 8 5 5 43 2 43 -3z"/>
<path d="M4238 3046 c-21 -5 -38 -13 -38 -18 0 -4 -8 -8 -17 -8 -22 0 -88 -61
-111 -103 l-17 -32 -5 75 c-5 73 -5 74 -35 80 -16 3 -68 3 -115 0 l-85 -5 -1
-572 0 -573 117 0 117 0 0 369 c1 357 2 371 23 420 12 28 25 51 30 51 4 0 10
8 13 18 7 22 89 76 138 92 21 6 58 13 83 14 50 4 57 8 62 34 6 34 8 122 2 122
-3 0 -5 10 -5 23 1 20 -3 22 -59 22 -33 0 -77 -4 -97 -9z"/>
<path d="M4828 3055 c-2 -2 -17 -6 -34 -9 -49 -9 -98 -32 -149 -71 -61 -47
-89 -79 -117 -135 -13 -25 -29 -53 -37 -62 -8 -10 -11 -18 -7 -18 3 0 0 -15
-8 -34 -8 -19 -12 -37 -9 -40 3 -2 1 -11 -3 -18 -10 -15 -11 -22 -20 -108 -7
-72 -7 -94 0 -190 5 -66 20 -165 26 -165 1 0 3 -9 5 -20 9 -45 81 -168 120
-204 50 -46 121 -84 185 -98 48 -12 55 -12 140 -13 86 0 147 14 220 50 58 29
103 68 132 112 29 44 60 101 64 118 2 8 10 38 18 65 23 86 35 282 22 376 -7
50 -28 143 -36 158 -5 9 -16 34 -26 56 -47 109 -141 193 -259 233 -37 13 -218
26 -227 17z m112 -196 c0 9 51 -7 90 -28 27 -16 66 -61 63 -73 -2 -5 1 -8 6
-8 8 0 19 -29 27 -70 2 -8 6 -31 10 -50 11 -56 12 -240 2 -306 -26 -171 -110
-264 -233 -258 -151 8 -225 138 -230 399 -3 234 58 367 180 389 15 3 30 7 32
10 3 3 16 1 29 -4 13 -5 24 -6 24 -1z"/>
<path d="M6299 3049 c-92 -20 -239 -116 -239 -157 0 -8 -3 -12 -6 -9 -14 13
-78 -152 -90 -228 -15 -95 -20 -160 -18 -226 2 -102 18 -220 32 -244 4 -5 8
-18 9 -27 2 -15 18 -46 55 -108 42 -71 140 -136 248 -165 53 -14 211 -15 265
-1 66 16 165 87 215 152 42 56 60 84 60 96 0 11 -61 58 -75 58 -3 0 -15 9 -27
20 -29 26 -33 26 -60 -12 -39 -57 -52 -69 -93 -93 -56 -32 -141 -46 -205 -32
-81 17 -155 97 -177 191 -10 49 -15 136 -7 137 5 0 17 2 27 4 9 2 17 -2 17 -8
0 -8 3 -8 8 -2 8 12 102 14 102 2 0 -4 5 -5 12 -1 16 10 98 11 98 1 0 -5 6 -5
13 0 17 11 127 10 127 -1 0 -5 6 -4 13 1 6 5 60 8 119 7 l107 -1 3 31 c3 33
-7 171 -16 221 -40 213 -147 350 -304 390 -60 15 -152 17 -213 4z m168 -200
c56 -20 114 -112 123 -194 7 -59 18 -56 -201 -54 l-201 1 6 44 c13 108 78 193
161 208 15 3 30 7 33 10 5 6 41 -1 79 -15z"/>
<path d="M7348 3055 c-2 -2 -19 -7 -38 -10 -76 -13 -178 -76 -230 -142 -36
-45 -82 -156 -96 -229 -15 -83 -20 -275 -9 -359 5 -43 26 -130 40 -173 3 -7 5
-16 6 -20 1 -4 10 -19 20 -34 10 -14 19 -30 19 -35 0 -21 95 -103 153 -131 82
-40 133 -51 240 -50 129 0 227 42 308 132 33 36 89 137 89 159 0 9 -27 26 -67
43 -38 15 -72 31 -77 36 -19 16 -32 8 -49 -29 -24 -55 -71 -108 -112 -127 -74
-36 -184 -16 -244 43 -31 30 -69 98 -77 135 -12 61 -16 86 -20 141 -6 78 -6
70 0 145 17 197 105 309 243 310 58 0 88 -9 119 -37 26 -22 64 -87 64 -109 0
-19 30 -31 39 -15 4 6 18 13 30 16 35 6 131 58 131 70 -1 15 -50 97 -85 140
-16 21 -48 49 -70 64 -82 53 -115 63 -222 66 -55 2 -103 2 -105 0z"/>
<path d="M10275 3048 c-27 -4 -58 -13 -67 -18 -10 -6 -25 -10 -33 -10 -8 0
-15 -4 -15 -9 0 -5 -10 -11 -22 -15 -13 -3 -47 -28 -76 -57 -29 -28 -56 -48
-60 -45 -4 4 -7 37 -7 74 0 66 0 67 -30 72 -17 3 -48 3 -70 0 l-40 -5 0 -795
0 -795 70 0 70 0 0 297 0 296 25 -28 c63 -72 192 -133 279 -133 116 1 192 32
269 111 48 48 120 164 129 207 1 6 9 44 18 85 92 425 -132 817 -440 768z m138
-143 c47 -22 103 -84 130 -144 12 -25 22 -48 22 -51 1 -3 5 -23 9 -45 5 -22
10 -51 12 -65 6 -38 5 -221 -1 -255 -23 -132 -47 -193 -96 -249 -32 -37 -88
-76 -117 -81 -9 -2 -18 -4 -19 -4 -2 -1 -6 -1 -10 -2 -5 -1 -16 -5 -25 -10
-10 -5 -18 -6 -18 -2 0 4 -21 7 -47 7 -27 -1 -54 3 -60 8 -7 6 -13 7 -13 4 0
-4 -13 2 -29 13 -16 12 -33 21 -38 21 -7 0 -54 44 -100 94 -16 17 -18 47 -18
305 l-1 286 35 45 c50 64 78 87 146 120 52 25 69 29 130 26 40 -2 87 -11 108
-21z"/>
<path d="M5609 3040 l-46 -5 0 -580 c0 -319 -3 -596 -7 -617 -14 -85 -48 -115
-143 -125 -29 -3 -53 -11 -54 -17 -1 -17 3 -108 6 -136 1 -14 3 -31 4 -38 2
-23 242 -5 257 19 3 5 13 9 23 9 26 0 90 68 113 119 10 25 22 70 26 100 4 31
8 328 7 661 l0 605 -70 5 c-38 3 -91 3 -116 0z"/>
<path d="M8860 3042 l-55 -3 2 -452 c2 -456 3 -493 17 -515 4 -7 5 -12 1 -12
-3 0 2 -15 11 -32 23 -47 83 -107 124 -124 30 -13 50 -18 118 -28 13 -2 92 8
122 16 46 12 114 53 187 112 45 36 83 66 85 66 2 0 2 -40 0 -90 l-3 -90 73 0
73 0 0 573 0 572 -60 5 c-33 3 -65 4 -72 2 -9 -3 -11 -110 -10 -425 l1 -422
-61 -61 c-69 -68 -173 -125 -233 -128 -21 0 -35 -5 -32 -10 3 -5 1 -6 -5 -3
-5 3 -20 8 -34 11 -72 13 -133 64 -148 123 -6 22 -10 218 -9 472 0 495 10 448
-92 443z"/>
<path d="M5739 1153 c-4 -107 -1 -445 4 -449 3 -4 12 -4 20 -1 10 4 15 23 16
56 0 40 7 59 28 86 15 19 31 31 35 27 4 -4 25 -43 46 -87 30 -61 45 -81 61
-82 11 -1 21 1 21 5 0 4 -23 54 -50 110 l-51 102 41 55 c22 30 40 56 40 59 0
3 -10 3 -22 1 -23 -5 -28 -10 -83 -80 -16 -21 -39 -49 -50 -62 l-20 -24 0 135
c0 75 4 136 8 136 4 0 3 9 -3 20 -16 30 -40 25 -41 -7z"/>
<path d="M6918 1178 c0 -2 -2 -108 -3 -236 -1 -195 1 -235 13 -239 20 -8 28
10 27 61 -1 36 4 51 31 82 l32 39 43 -91 c36 -75 47 -91 66 -91 22 0 22 0 7
35 -8 19 -19 41 -25 48 -5 6 -12 22 -14 34 -2 13 -11 30 -19 39 -30 34 -29 64
4 106 50 63 54 73 24 69 -14 -1 -27 -4 -28 -6 -9 -14 -59 -79 -80 -103 -14
-16 -26 -33 -26 -37 0 -5 -4 -8 -8 -8 -4 0 -7 62 -7 138 1 75 -1 143 -3 150
-3 10 -29 18 -34 10z"/>
<path d="M8382 1150 c3 -17 1 -33 -4 -36 -4 -3 -4 -13 2 -23 5 -10 7 -20 5
-22 -4 -5 -6 -102 -3 -166 1 -24 0 -45 -3 -47 -2 -2 -3 -38 -1 -80 3 -70 5
-75 25 -72 20 3 21 8 21 209 1 114 -3 207 -8 207 -5 0 -4 6 1 13 16 21 9 42
-16 45 -21 3 -23 1 -19 -28z"/>
<path d="M6682 1127 c-27 -27 -38 -47 -33 -55 6 -9 13 -7 32 9 13 12 35 30 48
40 14 11 21 25 17 34 -8 23 -18 19 -64 -28z"/>
<path d="M8660 1125 c-29 -30 -41 -48 -34 -55 7 -7 25 3 54 30 25 22 49 40 54
40 10 0 -13 30 -23 30 -4 0 -27 -20 -51 -45z"/>
<path d="M6083 1152 c-9 -6 -3 -17 21 -41 l35 -34 35 33 c19 19 33 37 30 42
-8 13 -19 10 -44 -14 l-23 -22 -18 22 c-19 25 -19 25 -36 14z"/>
<path d="M8817 1154 c-3 -4 9 -22 27 -42 l33 -35 37 33 c43 40 34 66 -11 31
l-28 -22 -16 20 c-17 21 -31 26 -42 15z"/>
<path d="M5331 1116 c-5 -6 -6 -18 -2 -26 5 -14 11 -15 40 -11 4 0 6 12 4 24
-5 25 -27 31 -42 13z"/>
<path d="M4509 1032 c-5 -28 -3 -446 2 -454 4 -6 13 -8 21 -5 11 4 14 24 14
81 -1 76 8 93 33 62 10 -11 74 -16 113 -7 3 0 19 21 36 46 26 39 29 53 28 112
-2 132 -63 191 -163 158 -13 -4 -23 -11 -23 -15 0 -4 -7 -10 -15 -14 -10 -4
-14 1 -12 16 1 13 -4 22 -15 23 -10 2 -19 0 -19 -3z m158 -38 c49 -13 66 -156
27 -222 -20 -36 -65 -46 -106 -26 -38 20 -42 30 -43 119 -1 75 1 82 27 108 27
27 52 32 95 21z"/>
<path d="M4832 1031 c-7 -4 -10 -31 -9 -69 1 -34 -1 -62 -6 -62 -4 0 -5 -5 -1
-11 9 -16 11 -109 1 -109 -5 0 -5 -6 0 -12 4 -7 6 -25 4 -40 -2 -20 2 -28 13
-28 24 0 29 17 30 114 2 114 26 164 87 179 16 4 25 13 25 27 0 18 -5 20 -31
14 -16 -3 -30 -7 -31 -8 0 0 -13 -19 -28 -41 l-26 -40 3 42 c3 42 -8 58 -31
44z"/>
<path d="M5084 1023 c-53 -26 -69 -60 -68 -143 0 -87 2 -95 32 -137 20 -28 63
-50 87 -44 5 1 19 3 30 5 24 2 65 27 65 40 0 5 7 17 16 27 25 28 26 154 1 197
-36 62 -104 85 -163 55z m111 -48 c14 -13 25 -34 26 -47 2 -42 2 -93 0 -113
-2 -29 -42 -75 -70 -80 -32 -6 -78 23 -90 55 -23 68 0 193 38 203 42 12 73 6
96 -18z"/>
<path d="M5329 960 c0 -41 0 -126 0 -188 -1 -115 -9 -142 -45 -142 -17 0 -19
-30 -1 -31 32 -3 53 4 69 24 14 18 17 51 18 219 1 192 0 197 -20 195 -18 -1
-20 -8 -21 -77z"/>
<path d="M5497 1021 c-45 -31 -55 -53 -64 -139 -7 -71 11 -125 54 -158 18 -14
33 -22 33 -19 0 3 9 1 19 -5 13 -6 22 -7 26 0 3 5 12 7 20 4 8 -3 30 10 52 31
30 29 34 38 23 45 -10 6 -23 2 -41 -16 -31 -30 -63 -37 -92 -21 -36 21 -54 49
-53 85 l1 35 98 0 c109 0 107 -2 88 80 -9 37 -50 86 -74 88 -49 6 -71 3 -90
-10z m101 -40 c25 -21 34 -60 19 -79 -7 -9 -13 -9 -23 -1 -8 6 -14 8 -14 3 0
-13 -100 -11 -101 1 -9 78 64 124 119 76z"/>
<path d="M6080 1022 c-46 -23 -71 -74 -71 -149 -1 -120 52 -182 142 -170 34 4
51 14 72 39 26 31 26 34 10 46 -15 11 -19 9 -31 -13 -16 -31 -51 -46 -83 -38
-50 13 -73 68 -67 154 4 54 9 66 36 90 27 24 35 27 63 19 30 -9 48 -25 49 -42
0 -9 40 -11 40 -2 0 14 -35 64 -49 70 -35 14 -78 13 -111 -4z"/>
<path d="M6324 1032 c-8 -5 -12 -58 -12 -165 0 -128 3 -160 15 -164 7 -3 17
-3 20 1 4 3 7 60 7 126 1 120 1 120 30 145 32 28 88 32 108 7 7 -8 12 -63 12
-145 1 -125 2 -132 21 -132 19 0 20 7 20 144 0 143 0 143 -27 166 -33 28 -85
26 -128 -5 -30 -21 -41 -25 -39 -12 6 35 -5 49 -27 34z"/>
<path d="M6623 1024 c-3 -8 -3 -23 0 -34 3 -11 1 -23 -4 -26 -5 -3 -6 -10 -3
-16 4 -6 6 -40 4 -77 -2 -69 -2 -74 2 -131 4 -41 38 -58 39 -18 6 272 4 307
-14 312 -10 2 -21 -2 -24 -10z"/>
<path d="M7243 1022 c-37 -18 -60 -57 -37 -66 7 -3 23 4 33 16 26 27 95 36
116 15 8 -9 15 -27 15 -40 0 -22 -8 -27 -68 -46 -81 -24 -114 -55 -118 -109
-3 -46 35 -97 67 -89 11 3 19 1 19 -4 0 -12 69 17 93 39 10 9 18 12 17 7 -7
-32 1 -46 23 -43 14 2 20 9 18 18 -2 8 -5 65 -6 125 -2 129 -9 158 -39 174
-34 19 -97 20 -133 3z m131 -190 c0 -21 -7 -47 -15 -58 -32 -44 -108 -53 -129
-14 -10 19 -2 59 15 76 16 17 119 52 125 43 3 -4 5 -25 4 -47z"/>
<path d="M7492 870 c3 -148 5 -165 21 -168 15 -3 17 8 17 121 0 116 1 125 23
143 35 32 70 44 93 31 25 -13 35 -29 29 -44 -2 -7 -1 -13 3 -13 4 0 6 -53 6
-118 -2 -104 0 -119 15 -119 9 0 18 3 21 8 4 6 5 158 1 255 -2 39 -34 67 -79
70 -23 1 -42 -2 -42 -7 0 -5 -5 -9 -12 -9 -6 0 -22 -10 -35 -22 l-23 -21 0 31
c0 25 -4 30 -20 29 -20 -1 -20 -7 -18 -167z"/>
<path d="M7875 1033 c-38 -7 -74 -48 -84 -95 -15 -66 -6 -153 20 -189 46 -65
145 -67 193 -2 16 21 16 27 5 39 -12 11 -17 9 -34 -16 -11 -17 -27 -30 -35
-31 -8 0 -23 -2 -32 -4 -27 -5 -66 32 -78 74 -12 46 -4 128 16 158 28 44 107
41 130 -4 9 -19 13 -21 27 -10 16 11 15 14 -7 42 -13 17 -29 31 -35 31 -6 1
-12 3 -13 4 -5 5 -53 6 -73 3z"/>
<path d="M8138 1021 c-14 -8 -34 -31 -43 -51 -19 -37 -29 -170 -14 -170 5 0 8
-3 7 -7 -4 -18 26 -61 52 -76 39 -23 88 -21 127 6 37 25 48 46 34 60 -7 7 -19
2 -35 -16 -14 -15 -29 -27 -33 -28 -4 0 -18 -2 -31 -3 -42 -5 -75 34 -88 102
-5 25 -12 23 121 26 l80 1 -3 30 c-7 67 -40 130 -71 136 -33 7 -81 2 -103 -10z
m105 -39 c9 -10 20 -33 23 -50 5 -25 3 -32 -10 -33 -70 -2 -126 0 -134 5 -16
9 5 63 31 81 29 20 70 19 90 -3z"/>
<path d="M8576 1032 c-10 -2 -32 -16 -48 -30 -27 -24 -28 -27 -12 -39 14 -10
20 -9 34 7 38 43 112 38 128 -10 12 -33 1 -44 -49 -54 -88 -16 -140 -67 -133
-130 8 -72 102 -103 157 -52 27 25 37 24 37 -6 0 -11 7 -18 19 -18 19 0 19 7
17 133 -4 147 -8 167 -38 186 -22 14 -80 20 -112 13z m109 -208 c-1 -39 -6
-48 -36 -68 -77 -53 -142 -2 -94 75 12 20 118 59 126 47 3 -5 5 -29 4 -54z"/>
<path d="M8803 1018 c3 -10 0 -18 -5 -18 -6 0 -7 -5 -2 -12 11 -16 11 -39 1
-55 -5 -7 -5 -13 0 -13 4 0 8 -16 8 -35 0 -19 -4 -35 -9 -35 -5 0 -4 -6 1 -12
5 -7 8 -41 8 -75 -1 -54 2 -63 17 -63 20 0 20 3 20 115 -1 104 19 145 86 179
33 17 39 40 11 42 -25 1 -70 -30 -75 -53 -7 -27 -21 -31 -21 -5 0 49 -4 58
-24 58 -14 0 -19 -5 -16 -18z"/>
</g>
</svg>
