<?xml version="1.0" standalone="no"?>
<!DOCTYPE svg PUBLIC "-//W3C//DTD SVG 20010904//EN"
 "http://www.w3.org/TR/2001/REC-SVG-20010904/DTD/svg10.dtd">
<svg version="1.0" xmlns="http://www.w3.org/2000/svg"
 width="572.000000pt" height="640.000000pt" viewBox="0 0 572.000000 640.000000"
 preserveAspectRatio="xMidYMid meet">

<g transform="translate(0.000000,640.000000) scale(0.100000,-0.100000)"
fill="#000000" stroke="none">
<path d="M2980 6354 c-53 -85 -120 -228 -132 -287 -9 -44 -9 -70 0 -114 12
-57 57 -143 78 -150 7 -2 17 42 28 124 10 70 23 157 31 193 14 65 14 65 9 -65
-2 -71 -7 -160 -10 -197 -3 -40 -1 -68 4 -68 18 0 84 82 108 134 31 67 31 137
-1 259 -25 97 -60 195 -75 211 -5 5 -22 -13 -40 -40z"/>
<path d="M3300 6158 c-61 -94 -128 -236 -139 -293 -6 -31 -6 -69 0 -98 13 -73
77 -182 95 -164 3 3 10 41 15 84 6 43 21 130 34 193 l24 115 -5 -130 c-2 -71
-7 -163 -10 -202 -4 -47 -3 -73 4 -73 16 0 97 95 118 137 39 82 24 222 -43
405 -37 99 -44 101 -93 26z"/>
<path d="M1796 6082 c-13 -22 -24 -276 -15 -368 11 -119 39 -186 107 -252 51
-50 136 -101 148 -90 3 4 -5 37 -20 73 -29 74 -118 366 -113 372 5 5 120 -238
158 -333 17 -44 35 -83 40 -88 12 -14 36 50 50 131 21 129 -18 224 -153 370
-100 108 -195 195 -202 185z"/>
<path d="M2205 6078 c-36 -97 -48 -146 -52 -214 -7 -95 3 -116 75 -164 56 -37
87 -40 79 -7 -23 94 -47 220 -44 224 6 5 77 -164 84 -200 3 -15 9 -30 14 -33
13 -7 56 65 70 116 17 63 -3 100 -101 194 -88 84 -118 104 -125 84z"/>
<path d="M3772 6078 c-22 -27 -120 -235 -148 -313 -35 -101 -38 -204 -7 -281
25 -63 83 -149 93 -137 4 4 13 73 20 153 6 80 18 181 24 225 l12 80 7 -117 c3
-65 3 -170 0 -233 -4 -83 -3 -115 5 -115 20 0 101 112 122 168 39 103 17 260
-66 475 -39 103 -46 113 -62 95z"/>
<path d="M2614 5959 c-61 -123 -129 -289 -155 -385 -41 -146 -24 -289 48 -399
39 -61 96 -135 104 -135 3 0 9 71 12 158 3 86 13 240 23 342 17 168 19 180 25
125 14 -120 31 -509 24 -561 -3 -30 -2 -55 3 -58 12 -7 64 50 114 128 104 161
101 317 -10 601 -57 145 -119 275 -131 275 -6 0 -31 -41 -57 -91z"/>
<path d="M1529 5839 c-18 -34 -25 -241 -9 -278 19 -48 120 -134 120 -103 0 4
-11 52 -25 107 -14 54 -24 103 -22 108 2 6 20 -40 41 -102 31 -91 41 -109 52
-100 8 6 18 28 24 48 24 86 5 140 -87 253 -74 91 -79 94 -94 67z"/>
<path d="M4273 5805 c-21 -40 -38 -194 -38 -335 0 -137 2 -148 27 -203 30 -63
146 -193 160 -179 5 5 0 46 -11 93 -27 113 -63 318 -59 331 4 12 79 -223 104
-327 9 -38 21 -74 25 -79 13 -14 47 71 61 151 14 84 3 145 -42 241 -32 67
-140 235 -188 292 -27 32 -30 33 -39 15z"/>
<path d="M1343 5703 c-153 -215 -199 -321 -190 -439 5 -74 44 -189 62 -183 6
2 19 42 31 89 25 102 96 332 101 326 5 -5 -34 -234 -58 -339 -12 -49 -19 -91
-16 -94 20 -19 124 98 165 184 26 55 27 65 26 203 -1 139 -24 324 -44 343 -4
5 -39 -35 -77 -90z"/>
<path d="M4048 5732 c-72 -73 -98 -116 -98 -159 1 -36 38 -119 49 -107 4 5 20
44 36 87 15 43 29 76 32 74 4 -4 -19 -115 -33 -159 -10 -32 25 -20 72 25 35
33 46 51 51 83 5 40 -21 202 -36 216 -4 4 -37 -23 -73 -60z"/>
<path d="M889 5748 c-7 -12 -14 -75 -17 -140 -4 -111 -4 -119 21 -160 24 -42
75 -88 97 -88 13 0 13 -1 -9 88 -41 165 -34 171 18 16 17 -51 36 -89 43 -89
19 0 42 103 34 147 -8 42 -60 122 -128 197 -46 51 -47 52 -59 29z"/>
<path d="M4755 5700 c-107 -123 -134 -199 -101 -289 13 -37 33 -52 40 -29 16
54 69 198 72 195 2 -2 -8 -49 -21 -106 -29 -119 -28 -111 -15 -111 21 0 73 46
96 86 21 35 24 53 24 130 -1 93 -12 170 -26 184 -5 5 -35 -22 -69 -60z"/>
<path d="M3070 5679 c-21 -39 -59 -160 -66 -208 -4 -32 -1 -59 9 -84 17 -39
67 -107 80 -107 4 0 8 51 8 113 1 116 6 107 24 -46 8 -71 20 -70 58 3 24 46
28 63 23 105 -6 52 -91 236 -113 243 -6 2 -17 -7 -23 -19z"/>
<path d="M3395 5525 c-57 -127 -106 -293 -112 -379 -5 -76 -3 -88 21 -141 25
-56 142 -185 167 -185 8 0 10 15 5 48 -9 64 -20 428 -13 422 8 -8 65 -285 76
-374 5 -42 12 -80 16 -84 10 -10 52 48 92 127 33 65 38 84 37 142 0 56 -6 79
-41 151 -41 86 -135 233 -191 298 l-30 35 -27 -60z"/>
<path d="M2226 5438 c-55 -99 -122 -248 -141 -313 -28 -95 -18 -203 28 -300
21 -44 41 -74 46 -69 5 5 16 68 25 139 10 72 26 171 37 220 l18 90 -4 -145
c-3 -80 -8 -183 -11 -230 l-7 -85 42 40 c23 22 56 69 74 105 55 111 49 250
-20 495 -36 127 -43 132 -87 53z"/>
<path d="M633 5374 c-124 -130 -157 -209 -117 -287 24 -48 85 -120 94 -110 4
4 12 37 18 73 7 36 23 99 36 140 l24 75 1 -80 c0 -44 -4 -108 -9 -143 -6 -35
-8 -67 -5 -73 10 -15 82 30 126 78 35 39 39 48 39 97 0 29 -8 77 -17 106 -23
72 -85 193 -101 198 -7 2 -47 -31 -89 -74z"/>
<path d="M4971 5416 c-46 -74 -83 -180 -88 -252 l-5 -72 40 -44 c45 -49 117
-94 127 -79 3 6 1 38 -5 73 -5 35 -9 99 -9 143 l1 80 24 -75 c13 -41 29 -104
36 -140 6 -36 14 -69 18 -73 9 -10 70 62 94 110 20 41 20 95 0 136 -34 67
-179 227 -205 227 -4 0 -17 -15 -28 -34z"/>
<path d="M1682 5353 c-119 -177 -184 -324 -185 -418 -1 -48 6 -75 30 -126 29
-60 95 -149 112 -149 4 0 13 60 20 133 13 132 46 346 52 337 2 -3 6 -113 9
-245 l5 -240 61 60 c34 34 73 85 88 118 26 52 28 65 24 135 -3 46 -16 109 -32
156 -31 91 -118 280 -134 290 -6 4 -27 -18 -50 -51z"/>
<path d="M3971 5380 c-35 -58 -110 -236 -131 -313 -28 -102 -26 -180 6 -246
28 -56 130 -174 146 -169 6 2 9 98 9 228 -1 124 3 231 7 238 9 13 46 -228 58
-375 4 -46 10 -83 15 -83 17 0 83 88 112 149 42 89 41 157 -2 266 -32 79 -131
255 -175 310 l-24 29 -21 -34z"/>
<path d="M945 5208 c-13 -44 -28 -197 -32 -344 -8 -260 14 -351 116 -465 50
-56 186 -158 197 -147 3 3 -11 57 -31 120 -39 122 -139 518 -132 524 6 6 146
-336 196 -480 26 -72 51 -131 56 -131 6 0 23 38 40 85 25 73 29 100 30 190 0
100 -2 108 -36 180 -20 41 -70 120 -111 175 -79 104 -263 305 -279 305 -5 0
-11 -6 -14 -12z"/>
<path d="M2946 5130 c-56 -76 -169 -253 -171 -270 -1 -3 -7 -23 -15 -45 -21
-61 -16 -168 11 -250 13 -38 29 -68 34 -66 6 2 22 49 37 105 30 113 110 348
103 301 -15 -97 -40 -223 -61 -313 -14 -57 -23 -106 -20 -109 9 -10 84 57 122
108 65 89 77 136 76 289 -1 135 -22 314 -39 331 -6 6 -36 -27 -77 -81z"/>
<path d="M4669 5133 c-150 -157 -248 -286 -302 -401 -30 -62 -32 -74 -32 -172
1 -90 5 -117 30 -190 17 -47 34 -85 40 -85 5 0 30 59 56 131 50 144 190 486
196 480 7 -6 -93 -402 -132 -524 -20 -63 -34 -117 -31 -120 11 -11 147 91 197
147 103 116 125 206 115 476 -7 194 -24 336 -42 342 -6 2 -49 -36 -95 -84z"/>
<path d="M2395 4797 c-36 -74 -84 -190 -107 -258 -40 -117 -42 -130 -43 -239
0 -113 1 -116 37 -190 39 -80 124 -194 137 -186 4 3 11 106 15 228 4 123 13
277 20 343 l11 120 13 -140 c7 -77 16 -228 18 -335 3 -107 8 -202 11 -210 8
-25 89 76 136 169 l42 85 0 115 c-1 110 -3 123 -43 240 -41 119 -164 391 -177
391 -3 0 -35 -60 -70 -133z"/>
<path d="M3185 4797 c-36 -74 -84 -190 -107 -258 -40 -117 -42 -130 -43 -240
l0 -115 42 -85 c47 -93 128 -194 136 -169 3 8 8 103 11 210 2 107 11 258 18
335 l13 140 12 -125 c6 -69 15 -223 19 -343 4 -120 11 -220 15 -223 13 -8 97
106 137 186 36 73 37 77 37 190 0 109 -3 121 -44 240 -41 121 -163 390 -176
390 -3 0 -35 -60 -70 -133z"/>
<path d="M285 4835 c-137 -175 -150 -240 -75 -359 17 -27 35 -45 39 -40 5 5
16 47 25 94 9 47 23 105 30 130 l15 45 0 -50 c1 -27 -4 -90 -10 -138 -6 -49
-8 -91 -6 -94 9 -9 79 50 109 91 23 32 28 49 28 99 0 32 -7 85 -15 116 -18 70
-60 174 -72 178 -5 2 -35 -31 -68 -72z"/>
<path d="M5344 4873 c-38 -93 -57 -164 -62 -235 -4 -67 -2 -81 18 -112 23 -39
107 -112 116 -103 3 3 1 45 -5 94 -6 48 -11 111 -10 138 l0 50 15 -45 c7 -25
21 -83 30 -130 9 -47 20 -89 25 -94 10 -11 67 78 80 126 12 45 -1 103 -35 160
-30 51 -138 188 -148 188 -4 0 -15 -17 -24 -37z"/>
<path d="M617 4818 c-15 -59 -29 -250 -23 -312 9 -99 37 -156 113 -226 68 -64
90 -74 79 -37 -23 73 -85 334 -83 342 3 9 82 -197 107 -280 22 -74 19 -70 35
-54 17 17 45 120 45 164 0 55 -29 131 -79 206 -53 81 -159 210 -177 216 -7 2
-14 -6 -17 -19z"/>
<path d="M5035 4787 c-127 -147 -191 -257 -201 -342 -7 -56 17 -171 41 -194
16 -16 13 -20 35 54 25 83 104 289 107 280 2 -8 -60 -269 -83 -342 -11 -37 11
-27 79 37 106 98 130 192 108 405 -14 125 -20 155 -32 155 -4 0 -29 -24 -54
-53z"/>
<path d="M1951 4678 c-21 -64 -43 -222 -37 -263 9 -56 37 -98 93 -139 48 -35
73 -44 73 -27 0 5 -11 56 -24 113 -13 57 -27 119 -29 138 -6 34 -5 34 15 -10
11 -25 35 -87 53 -138 19 -52 36 -96 39 -99 8 -9 55 93 62 135 10 62 -29 135
-127 236 -45 47 -88 86 -95 86 -7 0 -17 -15 -23 -32z"/>
<path d="M3651 4624 c-98 -101 -137 -174 -127 -236 7 -42 54 -144 62 -135 3 3
20 47 39 99 18 51 42 113 53 138 20 44 21 44 15 10 -2 -19 -16 -81 -29 -138
-13 -57 -24 -108 -24 -113 0 -17 25 -8 73 27 90 66 108 126 83 275 -20 116
-34 159 -50 159 -7 0 -50 -39 -95 -86z"/>
<path d="M1655 4561 c-3 -6 -10 -56 -17 -113 -13 -125 -3 -171 49 -229 36 -39
71 -65 79 -57 2 3 -7 49 -21 102 -14 54 -25 104 -24 110 0 14 56 -127 64 -165
10 -44 24 -45 42 -2 40 95 17 168 -93 298 -55 65 -68 74 -79 56z"/>
<path d="M3986 4505 c-110 -130 -133 -203 -93 -298 18 -43 32 -42 42 2 8 38
64 179 64 165 1 -6 -10 -56 -24 -110 -14 -53 -23 -99 -21 -102 19 -18 111 84
127 140 17 64 -3 257 -28 265 -6 2 -36 -26 -67 -62z"/>
<path d="M1433 4384 c-13 -24 -31 -150 -39 -275 -11 -159 15 -261 93 -357 37
-46 100 -98 109 -90 3 3 -4 41 -15 84 -26 105 -74 354 -69 360 5 5 93 -268
117 -364 10 -37 21 -67 26 -67 5 0 18 25 29 55 15 41 20 80 21 156 0 101 0
101 -47 195 -41 80 -90 155 -194 294 -20 27 -22 28 -31 9z"/>
<path d="M4214 4317 c-96 -130 -123 -172 -162 -255 -33 -69 -37 -87 -40 -167
-2 -73 2 -102 21 -155 12 -36 27 -64 32 -62 6 1 17 31 26 67 24 94 112 366
117 361 5 -6 -43 -255 -69 -360 -11 -43 -18 -81 -15 -84 9 -8 72 44 109 90 79
98 103 191 93 360 -8 128 -29 265 -42 278 -6 6 -32 -20 -70 -73z"/>
<path d="M18 4294 c-3 -3 14 -42 39 -87 146 -264 313 -464 426 -505 31 -12 90
-27 129 -33 71 -11 193 -5 203 11 3 4 -11 17 -30 29 -54 32 -167 117 -301 227
-166 136 -214 179 -184 164 83 -43 333 -195 439 -267 68 -46 126 -82 129 -79
9 10 -27 124 -59 188 -36 71 -116 159 -175 194 -93 54 -275 110 -477 145 -119
21 -131 22 -139 13z"/>
<path d="M5555 4280 c-197 -35 -379 -91 -469 -144 -59 -35 -139 -123 -175
-194 -32 -64 -68 -178 -59 -188 3 -3 61 33 129 79 106 72 356 224 439 267 72
37 -387 -334 -485 -391 -19 -12 -33 -25 -30 -29 10 -16 132 -22 203 -11 39 6
98 21 129 33 113 41 280 241 426 505 25 45 42 84 39 87 -8 9 -37 6 -147 -14z"/>
<path d="M1011 4258 c-23 -61 -43 -193 -39 -262 4 -87 28 -126 107 -175 53
-32 67 -29 52 12 -15 39 -54 228 -48 233 6 6 65 -141 81 -202 6 -22 16 -42 21
-45 17 -7 65 101 65 148 0 64 -31 115 -135 222 l-94 96 -10 -27z"/>
<path d="M4602 4186 c-101 -105 -132 -155 -132 -218 0 -47 43 -152 60 -146 6
2 24 39 39 83 15 44 38 100 49 125 l22 45 -6 -45 c-4 -25 -17 -85 -29 -135
-12 -49 -21 -93 -18 -97 7 -13 103 53 131 90 25 33 27 42 27 136 0 96 -26 239
-45 251 -4 2 -48 -37 -98 -89z"/>
<path d="M2760 4166 c-22 -59 -42 -192 -38 -256 3 -59 8 -74 34 -107 30 -37
120 -101 129 -91 3 2 -6 47 -19 99 -13 52 -26 114 -30 139 l-6 45 24 -50 c13
-28 36 -87 51 -133 16 -45 32 -82 36 -82 16 0 51 83 56 135 8 72 -19 124 -114
226 -94 99 -110 109 -123 75z"/>
<path d="M1953 4168 c-17 -21 -72 -189 -93 -285 -40 -178 -19 -275 77 -371 60
-59 110 -95 117 -84 3 5 -1 43 -8 83 -8 41 -19 133 -25 204 -7 72 -14 150 -16
174 -3 25 -3 43 -1 40 8 -8 84 -294 100 -379 24 -118 23 -116 45 -96 10 10 36
51 57 92 34 66 38 84 39 148 0 64 -4 81 -38 149 -34 69 -135 213 -214 305 -23
27 -31 31 -40 20z"/>
<path d="M3714 4132 c-79 -92 -164 -214 -201 -289 -34 -68 -38 -85 -38 -149 1
-64 5 -82 39 -148 42 -82 72 -118 80 -95 3 8 14 59 25 114 21 99 92 367 97
363 5 -7 -28 -340 -41 -412 -8 -43 -12 -83 -9 -88 15 -24 156 112 189 184 42
91 28 235 -46 451 -42 125 -45 127 -95 69z"/>
<path d="M2557 3809 c-42 -24 -103 -177 -163 -409 -19 -74 -39 -145 -44 -156
-10 -26 -151 -84 -264 -109 -140 -31 -418 -5 -526 49 -44 22 -184 120 -413
289 -99 73 -110 79 -133 68 -29 -13 -40 -35 -28 -61 13 -27 569 -461 709 -554
249 -164 437 -330 518 -457 66 -104 71 -133 58 -352 -15 -256 -61 -843 -116
-1492 -24 -291 -41 -533 -36 -538 21 -21 429 -87 538 -87 l43 0 0 1443 0 1444
-44 57 c-80 102 -81 111 -57 359 31 310 37 462 21 482 -21 26 -44 34 -63 24z"/>
<path d="M3175 3798 l-28 -22 6 -126 c3 -69 16 -226 28 -348 25 -255 25 -253
-58 -361 l-43 -54 0 -1444 0 -1443 58 0 c112 0 504 59 524 79 5 4 -19 329 -52
721 -105 1270 -119 1511 -91 1580 63 153 265 349 551 536 100 65 691 520 718
552 19 24 14 50 -12 67 -31 21 -26 24 -234 -129 -202 -148 -307 -219 -347
-234 -116 -46 -376 -65 -500 -37 -114 25 -255 83 -265 109 -5 11 -25 82 -44
156 -61 236 -121 386 -165 410 -14 7 -25 4 -46 -12z"/>
<path d="M1323 3745 c-13 -9 -23 -23 -23 -31 0 -9 52 -119 116 -246 93 -184
123 -234 148 -249 35 -21 133 -46 143 -36 3 4 -6 24 -21 44 -132 179 -246 383
-261 465 -4 21 -12 42 -19 47 -23 19 -61 22 -83 6z"/>
<path d="M4391 3747 c-17 -8 -28 -26 -37 -60 -25 -98 -129 -281 -260 -460 -15
-20 -24 -40 -21 -44 10 -10 108 15 144 37 25 15 54 63 147 249 64 127 116 237
116 245 0 15 -37 46 -55 46 -5 0 -21 -6 -34 -13z"/>
<path d="M1077 3723 c-17 -16 -5 -72 22 -110 79 -109 326 -322 348 -300 14 15
-41 103 -148 237 -60 77 -122 148 -136 160 -25 19 -73 27 -86 13z"/>
<path d="M4591 3683 c-67 -71 -220 -271 -244 -320 -12 -24 -18 -46 -14 -50 14
-13 153 92 241 181 111 114 138 153 134 198 -3 29 -7 33 -37 36 -29 3 -40 -3
-80 -45z"/>
<path d="M220 3623 c-36 -13 -137 -67 -178 -95 -41 -28 -43 -32 -28 -44 29
-21 178 -57 238 -57 59 0 88 12 141 61 15 14 27 30 27 34 0 5 -48 6 -107 4
l-108 -5 100 20 c55 11 104 25 109 30 15 13 -93 59 -139 58 -22 0 -47 -3 -55
-6z"/>
<path d="M5351 3605 c-32 -15 -51 -29 -45 -34 5 -5 54 -19 109 -30 l100 -20
-107 5 c-60 2 -108 1 -108 -4 0 -4 12 -20 28 -34 52 -49 81 -61 140 -61 60 0
209 36 238 57 15 12 13 16 -28 44 -143 99 -236 120 -327 77z"/>
<path d="M1796 3561 c-16 -18 -16 -28 13 -201 16 -101 34 -187 38 -191 5 -5
30 -12 56 -15 35 -5 48 -3 52 8 3 7 -17 99 -44 203 -56 212 -74 242 -115 196z"/>
<path d="M3936 3567 c-22 -16 -122 -395 -108 -409 6 -6 29 -8 57 -4 34 6 48
13 55 29 5 12 20 98 35 191 25 159 25 169 9 187 -20 22 -25 23 -48 6z"/>
<path d="M416 3411 c-8 -12 120 -154 204 -228 118 -103 176 -134 275 -146 53
-7 162 6 177 21 6 6 -19 23 -59 41 -95 45 -325 172 -320 177 5 5 162 -56 305
-118 51 -22 96 -38 99 -34 12 11 -29 77 -83 136 -57 61 -109 91 -198 114 -108
29 -390 54 -400 37z"/>
<path d="M5132 3409 c-164 -12 -284 -41 -353 -84 -65 -42 -175 -182 -156 -201
3 -4 48 12 99 34 143 62 300 123 305 118 5 -5 -225 -132 -320 -177 -40 -18
-65 -35 -59 -41 15 -15 124 -28 177 -21 99 12 157 43 275 146 83 73 212 216
205 228 -7 10 -22 10 -173 -2z"/>
<path d="M928 2956 c-44 -16 -98 -57 -159 -123 -57 -61 -139 -168 -139 -181 0
-28 271 -26 368 3 26 8 66 30 89 49 39 34 114 159 102 170 -3 4 -35 -7 -70
-23 -90 -40 -260 -103 -266 -98 -5 6 153 97 240 138 78 36 77 51 -4 68 -65 14
-115 13 -161 -3z"/>
<path d="M4623 2959 c-73 -17 -72 -33 4 -68 87 -41 245 -132 240 -138 -6 -5
-176 58 -266 98 -35 16 -67 27 -70 23 -12 -11 63 -136 102 -170 23 -19 63 -41
89 -49 98 -29 368 -31 368 -3 0 18 -127 173 -185 227 -32 28 -71 59 -88 68
-38 19 -137 26 -194 12z"/>
<path d="M1415 2853 c-47 -6 -117 -33 -153 -61 -68 -50 -138 -193 -190 -389
-17 -62 -27 -115 -22 -118 22 -14 269 60 377 112 135 65 189 150 198 312 5 80
-7 99 -37 57 -33 -45 -374 -330 -353 -296 19 33 184 230 252 301 40 42 70 79
66 82 -6 7 -84 7 -138 0z"/>
<path d="M4168 2855 c-4 -5 25 -42 65 -84 68 -71 233 -268 252 -301 21 -34
-320 251 -353 296 -30 42 -42 23 -37 -57 9 -162 63 -247 198 -312 108 -52 355
-126 377 -112 11 7 -43 210 -82 305 -80 193 -154 253 -331 266 -45 3 -85 3
-89 -1z"/>
<path d="M1725 2572 c-67 -41 -218 -243 -197 -264 14 -14 114 -28 201 -28 123
0 164 22 210 112 19 37 31 74 28 83 -6 14 -10 14 -44 -4 -48 -24 -215 -83
-220 -77 -6 5 155 102 202 122 30 12 35 17 25 29 -15 18 -102 45 -144 45 -17
0 -44 -8 -61 -18z"/>
<path d="M3849 2574 c-26 -7 -52 -20 -59 -28 -10 -13 -5 -18 25 -30 47 -20
208 -117 202 -122 -5 -6 -172 53 -220 77 -34 18 -38 18 -44 4 -3 -9 9 -46 28
-83 46 -90 87 -112 210 -112 87 0 187 14 201 28 12 12 -61 129 -121 194 -83
90 -122 103 -222 72z"/>
</g>
</svg>
